<svg xmlns="http://www.w3.org/2000/svg"  fill="#ffd43b" viewBox="0 0 377.95 153.38"><defs><style>.cls-1{font-size:19px;font-family:Molot;}</style></defs><g id="Слой_2" data-name="Слой 2"><g id="Слой_1-2" data-name="Слой 1"><path d="M6.21,32.7C5.63,23.2,4.74,13.8,6.1,4.35h.06c0,.22-.06.33-.1.57-.46,2.42-.54,6.48-.2,12.28a67.6,67.6,0,0,0,2,13.91,11.87,11.87,0,0,0,.55,1.55c.19.43.32.71.39.85a5.11,5.11,0,0,0,.56.82A4.48,4.48,0,0,0,10,35a10.83,10.83,0,0,1,1.34,2.81c.09.33.15.41.19.24s0-.23-.07-.38v-.12c-.1-.76-.2-1.41-.29-1.91s-.16-.85-.21-1-.19-.57-.43-1.19-.42-1.07-.55-1.36a3.22,3.22,0,0,1-.26-1.36c.06-.22.17-.31.36-.28s.32-.19.4-.68a8.11,8.11,0,0,0-.1-2.32c-.06-.53-.25-1.82-.58-3.88s-.54-3.74-.66-5c-.05-.42-.09-1-.15-1.59-.05-.42-.11-1-.16-1.57v-.31c.08.67.12,1,.21,1.71a38.31,38.31,0,0,0,3,11.3,24.82,24.82,0,0,1,2,5.06c.18.57.27.66.26.27,0-.19,0-.39,0-.59v-.45a37.47,37.47,0,0,1,.21-5c0-1,0-2.12,0-3.43,0-.33,0-.88-.05-1.65s-.06-1.48-.1-2.14-.07-1.3-.09-1.95,0-1.19,0-1.62l.07.16a2.19,2.19,0,0,1,.07.47c.71,5.21,1.58,8.9,2.52,10.73a2.66,2.66,0,0,0,.26.46c.32.71.54,1.21.68,1.51a9.72,9.72,0,0,1,.45,1.27,19.68,19.68,0,0,1,.48,2.11,2.43,2.43,0,0,0,.14.57c0-.09,0-.91-.05-2.58a9,9,0,0,1,.42-3.54,3.84,3.84,0,0,0,.3-.59q.18-.41.24-.42A15.72,15.72,0,0,0,21,22.63a40.18,40.18,0,0,0,.53-4.6c.07-1.35.11-3.1.16-5.14.1,2.95.16,6.08.19,9.11,0,2.38.07,4.51.08,6.28,0,2.29,0,3.93.16,5,.11-.59.16-.89.27-1.49A11.06,11.06,0,0,1,23.61,28a13.34,13.34,0,0,0,1.3-3.27,43.57,43.57,0,0,0,.75-9.06c0-.63,0-1.51-.06-2.64.24,3.36.47,7.53.48,12,0,.95,0,1.67,0,2.14s.12,1.05.22,1.7.27,1,.49,1a4.58,4.58,0,0,0,.9-.21c.09-.11.17-.17.26-.17-.12.41-.42,1.24-.9,2.45a10.76,10.76,0,0,0-.8,3.54c0,.27,0,.62,0,1.05l.06.12v-.13c.08-.26.15-.52.21-.79s.11-.47.15-.61.07-.3.11-.48A3.3,3.3,0,0,1,27,34c.08-.19.21-.43.37-.73.24-.58.67-1.43,1.22-2.55A15.64,15.64,0,0,0,29.7,25.9c.21-1.78.33-4.56.45-8.15.07-2,0-7.13.07-12.73,0-.56,0-.83.08-.84a4.39,4.39,0,0,1,.11,1.21c.23,4.89.6,12.79.89,21.37.05,1.34.11,4,.11,7.33a28.69,28.69,0,0,1-.35,5.65,8.77,8.77,0,0,1-.94,2.4,16.79,16.79,0,0,0,1.33-2.53,22.87,22.87,0,0,1,1.35-2.55c.68-1.22,1-3.54,1-7.39,0-.6,0-1.5,0-2.73.18,1.22.33,3.31.52,5.85.06.73.15,2,.23,3.59s.12,2.54.15,3.08A16.25,16.25,0,0,0,35,41.54a20.57,20.57,0,0,0,.55,2.26,19.71,19.71,0,0,1,.85,4.77,33.7,33.7,0,0,1-.5,6.82c.12-.5.26-1.24.42-2.19.45-2.75.7-4.06.75-4.31a24.9,24.9,0,0,0,.6-4.78,18.47,18.47,0,0,0-.17-3.79,30.91,30.91,0,0,1,.69,7.74c0,1,0,2.22-.06,3.52s-.1,2.81-.16,4.51-.1,3.08-.12,4.07v.3c-.08,2.9-.12,4.59-.11,5.08a25.36,25.36,0,0,1-1.92,8.16,6.84,6.84,0,0,0,.79-1.33A23.34,23.34,0,0,0,38,69.1a18.55,18.55,0,0,0,.66-2.62c.13-.75.31-2.12.54-4.13,0-.1,0-.48.11-1.13s.18-1.53.29-2.63c0,.1,0,1.41-.26,4s-.39,4.14-.47,4.82c-.12,1.07-.31,2.64-.56,4.53a33.08,33.08,0,0,1-1.69,6.92,8.73,8.73,0,0,0-.47,1.86,4.23,4.23,0,0,0-.05,1.13c0,.27.16.76.37,1.72a20.26,20.26,0,0,1,.39,2.26A46.31,46.31,0,0,1,37.53,93l-.06.22c0-.31,0-.46-.08-.76-.71-4.14-1.48-6.09-2.39-6.84a20.58,20.58,0,0,1-1.86-1.63,3.59,3.59,0,0,0-1-.92,10.42,10.42,0,0,1,1,3c.14.84.22,2.39.33,5.17.06,1.81.15,5.27.27,11.06.1,5,.12,10.33.07,15.24-.16,14.69-1,20.66-1.71,22.74.64-2.21,1.08-5.83,1.26-11.25s0-12-.35-18.72-.91-11.42-1.67-14.09c-.65-2.29-1.33-2.59-1.86-.93a10.86,10.86,0,0,0-.31,2.1c0,.81-.07,1.56-.07,2.24a3.37,3.37,0,0,1-.07,1c0,.17-.16-.11-.35-.8s-.29-1.23-.44-2A18.36,18.36,0,0,0,27.81,96c-.14-.46-.33-1-.56-1.61-.09-.25-.46-1.25-1.08-2.81.09.71.3,1.78.64,3.33s.58,2.88.74,3.87c.2,1.28.45,3.26.75,6.06.12,1.25.26,2.44.43,3.52s.38,2.26.66,4,.48,3,.59,4a42.7,42.7,0,0,1,.51,5.84,51.75,51.75,0,0,0-3.84-15.8A7.94,7.94,0,0,0,24.84,104c-.65-.62-1.24-2.52-1.69-5.39-.14-.26-.2-.1-.18.49.1,4.19.35,8.28.7,11.75.69,7.63,1.15,14.81,1.29,20.43-.61-9.89-1.93-18.15-3.44-21.82a22.28,22.28,0,0,1-1.34-6.89c-.07-.79-.13-2.39-.18-4.58a2.77,2.77,0,0,0-.11.91c0,.46-.08,1-.15,1.75s-.1,1.25-.12,1.56,0,.78-.09,1.35-.09,1-.12,1.39-.08.72-.16,1.16-.15.88-.25,1.32-.21,1-.36,1.76a75.18,75.18,0,0,0-1.26,12.55c0,.89,0,1.87-.06,2.93-.07,2.82-.09,6.88-.15,11.42,0-1.89,0-2.89-.07-5-.06-1.62-.12-4.22-.22-7.91s-.21-6.56-.3-8.5c-.11-2.29-.11-4.78,0-7.36s.12-4.31.11-5.25c0-1.26,0-2.67-.1-4.12a15.44,15.44,0,0,0-.12,1.81,24.16,24.16,0,0,1-.22,2.64,14.29,14.29,0,0,1-.44,2.17c-.19.61-.43,1.25-.7,1.9s-.47,1.15-.59,1.52A49.2,49.2,0,0,0,13,115.5a103,103,0,0,0-.65,18.28c-.13-1.62-.24-3.1-.32-4.39s-.12-2.71-.11-4.24,0-2.63,0-3.26,0-2.07.08-4.27.11-3.76.12-4.67c.14-7.23-.25-10.07-1.18-9.46-.08,0-.18.15-.3.41a6.13,6.13,0,0,1-.32.67,3.4,3.4,0,0,0-.23.53q-.09.27-.15.27s-.05-.25,0-.75a48.79,48.79,0,0,1,.73-5.37c.41-2.17.65-3.47.73-4.15.08-.28.19-1,.34-2a6.33,6.33,0,0,0-.47,1.38,18.25,18.25,0,0,1-.53,1.77c-.2.51-.41,1.1-.64,1.79s-.41,1.2-.52,1.51c-.58,1.89-1,5.22-1.27,10.42-.43,8.95-.38,19-.34,27,0,4.49.11,9.58.07,13,0-.51,0-1.35,0-2.79s-.06-2.5-.08-2.88l0,.37H7.86c-.09-3.18-.21-7-.32-11.1s-.26-9.25-.43-15.18-.31-10.25-.43-13c-.14-3-.26-5.94-.29-8.49a27.81,27.81,0,0,1,.53-6.29,11,11,0,0,1,.71-2.1A18.18,18.18,0,0,0,6,93.39c-.2.87-.42,1.86-.66,3s-.42,2-.53,2.63-.22,1.53-.35,2.82-.23,3-.3,5.05c0,.32,0,.48,0,.79,0,.53-.09,1.16-.19,1.88,0-4.48,0-10,.39-15,.07-1.17.11-2.14.14-3s0-1.45,0-1.95a6.94,6.94,0,0,0-.19-1.46A4.52,4.52,0,0,0,4,87.28c-.1-.18-.25-.44-.44-.72a4,4,0,0,1-.43-.81A3.11,3.11,0,0,1,3,85.44a21,21,0,0,1-1.33-4.89c-.41-2.21-.7-4.29-.83-5.84.22,1.24.33,1.84.54,3a20.16,20.16,0,0,0,.58,2.71,12.45,12.45,0,0,0,.67,2,2.92,2.92,0,0,0,.68.79,2.34,2.34,0,0,0,.57.43c.39.39.58.57,1,.91.08,0,.06-.07,0-.18A17.33,17.33,0,0,1,3,79c0-.18-.23-2.09-.81-6.59-.14-1-.23-1.56-.27-1.78-.14-1.42-.28-3-.4-4.84s-.23-3.82-.34-6S1,56.09,1,55.11c-.13-2-.28-4.72-.29-7.17.06,1.36.18,3,.31,4.72A20,20,0,0,0,2.11,59c.48.94.82,1.65,1,2.08a11.1,11.1,0,0,1,.56,1.29A8,8,0,0,0,3.39,61a36.84,36.84,0,0,1-.93-4.45,43.61,43.61,0,0,1-.08-4.65c0-.45,0-4.66.35-7.28.1-.75.21-1.82.34-3,.26-2.37.42-4.81.5-6.25,0,.48,0,1.21,0,2.14s-.05,1.62-.06,2.14,0,1.1,0,1.71.05,1.14.09,1.59a7.39,7.39,0,0,0,.22,1.12c.07.24.16.52.31,1s.25.77.28.88c.22.7.46,1.51.74,2.37a22.79,22.79,0,0,1-.44-3.55c0-.19,0-.49-.08-1s0-1.07,0-1.45a.87.87,0,0,1,.06-.44s.11,0,.2.13l.32.34a.34.34,0,0,0,.42.05,1.32,1.32,0,0,0,.48-.72,10.44,10.44,0,0,0,.54-3.42A32.92,32.92,0,0,0,6.31,34C6.25,33.45,6.22,33,6.21,32.7ZM23.28,46.34c-1.2-.34-2.4.31-3.55,2.42a31,31,0,0,0-2.8,8.39V57c0-.32.15-1,.34-1.87,0-.12,0-.18.06-.3a2.92,2.92,0,0,0,.12-.46,3.25,3.25,0,0,0,0-.44,62.68,62.68,0,0,1,1.83-6.09,10.53,10.53,0,0,1,2.28-4,4.73,4.73,0,0,0,.68-.84.3.3,0,0,0-.16.08l-.23.16-.27.15a.39.39,0,0,1-.19.09,2.91,2.91,0,0,1-1.13.41,4.28,4.28,0,0,1-1.05,0,4.18,4.18,0,0,0-1.14.17,4.82,4.82,0,0,0-3.25,2,2.92,2.92,0,0,0-.22.47,2.06,2.06,0,0,0-.13.58c0,.22,0,.41-.06.56a2.17,2.17,0,0,0,0,.63c0,.27,0,.49.06.65s0,.39.07.68,0,.53,0,.7c.18,2.08.41,4.06.65,5.67-.09-.6-.22-1.35-.38-2.22s-.29-1.46-.38-1.82-.22-.86-.39-1.46a11.72,11.72,0,0,0-.64-1.72c0-.08-.13-.29-.28-.63s-.26-.62-.37-.87a4.26,4.26,0,0,0-.27-.56V47a2.73,2.73,0,0,0,0,.37l.06.44.06.45c0,.15,0,.29.06.41a1.68,1.68,0,0,1,0,.29c.09,1,.15,2.91.16,6.32a28.26,28.26,0,0,0,1.71,10A8,8,0,0,0,17.94,69c-1.13,0-2.53-.92-4.18-3a13.44,13.44,0,0,1-2-5.43c0-.33-.1-.48-.14-.48.06.54.24,2.27.55,5.23.07.88.15,2.09.27,3.6s.16,2.36.17,2.57a13.92,13.92,0,0,0,.2,1.55c.09.4.25.61.47.63a2.3,2.3,0,0,0,.47,0l.68-.09c.21,0,.3,0,.28,0s-.11.24-.27.56a25.43,25.43,0,0,0-1.28,2.93,2.49,2.49,0,0,1-.5,1c-.16.16-.26.24-.31.24-.08.19.1.6.52,1.19a13.91,13.91,0,0,0,.94,1.18c1.78,1.58,3.68.53,5.52-4.57a1.91,1.91,0,0,1,.5-.92,56.67,56.67,0,0,1-1.68,5.77c-.19.63-.44,1.62-.81,2.7a5.43,5.43,0,0,1-.4.83,1.18,1.18,0,0,1-.57.44,4.35,4.35,0,0,0-.45.2,4.39,4.39,0,0,1-.7.2.56.56,0,0,0-.26.1,10.43,10.43,0,0,0,2.7-.46,3.37,3.37,0,0,1,.54-.18,5.21,5.21,0,0,0,.51-.15l.39-.17a1.18,1.18,0,0,0,.37-.24,3.9,3.9,0,0,0,.34-.35,3.35,3.35,0,0,0,.39-.55c.12-.22.25-.49.39-.82l.35-.74s.08.12.11.37a3.75,3.75,0,0,1,0,.64c.11,1,.6,1,1.49.25a3.65,3.65,0,0,0,1.05-2,15.61,15.61,0,0,0-.17-5.5,66.64,66.64,0,0,0-1.54-6.89c-.09-.19-.2-.4-.27-.59s-.09-.41,0-.32.13.09.26.29.59,1.73,1.72,4.49a33.59,33.59,0,0,0,1.75,3.49,14.88,14.88,0,0,1,1.36,3.6,1,1,0,0,0,.11.4c0-.41-.07-1-.15-1.81s-.13-1.6-.17-2.33-.08-1.56-.07-2.38c0-1.47.08-3.2,0-5a22.41,22.41,0,0,0-.74-5.06c-.88-3.27-2.33-4.84-3.89-4.47a6.56,6.56,0,0,0-2,1.16c-.05-.11.17-.42.65-1a8.93,8.93,0,0,1,1-1,6.22,6.22,0,0,1,3-.92c.81-.09,1.69.54,2.63,1.88.58.87,1,1.29,1.19,1.26.05,0,0-.1-.2-.28a23.39,23.39,0,0,1-1.88-6.32,2.8,2.8,0,0,1-.08-.58c-.28-1.5-.87-2-1.77-1.67a1.57,1.57,0,0,0-.57.25,1.55,1.55,0,0,1-.58.26A8,8,0,0,1,23.91,51a14.76,14.76,0,0,0,.79-1.25,2.29,2.29,0,0,0,.19-1.26,2.86,2.86,0,0,0-.65-1.53s-.13-.06-.26-.2A1.43,1.43,0,0,0,23.28,46.34Z"/><path d="M58.64,70.82a31.14,31.14,0,0,0,2-7.75c0,1.08-.22,3.28-.5,6a8.13,8.13,0,0,0,.12,3.48c.26.64,1,.56,2-.19a9.82,9.82,0,0,0,2.81-3.53,28.61,28.61,0,0,0,2.3-7.76,56.53,56.53,0,0,1-.86,6.3,8.54,8.54,0,0,0-.32,3c.07.93.6,1.15,1.45.78a4.58,4.58,0,0,0,1.81-1.46,6.28,6.28,0,0,0,1.06-2.55A23.56,23.56,0,0,0,71,64.18c.08-.82.15-1.91.2-3.28v-.34c0-.3,0-.35.13-.14,0,0,0,.32.07.89,0,.42.08,1.26.12,2.39s0,1.87.06,2.29,0,1,0,1.75a13.42,13.42,0,0,1-.19,1.94,14.59,14.59,0,0,1-.35,1.7,6.09,6.09,0,0,1-.8,1.46c-.16.27-.06.51.28.73a6.76,6.76,0,0,1,1.63,1.93,4.32,4.32,0,0,1,.4.63A9.64,9.64,0,0,1,74,79.78c0,.09-.18,0-.55-.31A7.79,7.79,0,0,0,71.16,78c-.28-.15-.89-.55-1.83-1.14a10.49,10.49,0,0,0,.47,1,25.36,25.36,0,0,1,2.47,7.66A114.71,114.71,0,0,1,73.44,104c0,2.27-.12,3.11-.13,3.17a10.15,10.15,0,0,1-.53,1.89s0-.3.09-1.11a10,10,0,0,0,.13-1.56,53.68,53.68,0,0,0-1.52-14.88,11.59,11.59,0,0,0-3.15-5.64,18.3,18.3,0,0,1-2.17-2.75,4.9,4.9,0,0,0,.16,1,33.63,33.63,0,0,1,1.31,5.82c.23,2.08.51,4.57.92,7.16a1.94,1.94,0,0,1,.08.45c.1.7.18,1.45.24,2.26l.07.27a8.2,8.2,0,0,1,.08,1.8c0-.22,0-.33-.07-.56a43.32,43.32,0,0,0-2.21-9.16c-1.08-3-2.24-4.6-3.47-4.83a1.27,1.27,0,0,1-.41,0,1.1,1.1,0,0,1-.41-.07.92.92,0,0,0-.34-.11.8.8,0,0,1-.34-.1l-.31-.19a.84.84,0,0,1-.32-.29,1.35,1.35,0,0,0-.24-.3,1.92,1.92,0,0,1-.32-.44c-.09-.18-.19-.38-.28-.61s-.19-.48-.29-.75-.1-.42-.15-.71a16.08,16.08,0,0,0,.23,2.76c.19,1.34.31,2.25.34,2.64s.06,1,.09,1.89.07,1.56.12,2c.08.79.27,2.24.59,4.25a68.6,68.6,0,0,1,.9,8.2l-.06,0c0-.32,0-.48-.08-.8a42.83,42.83,0,0,0-2.2-9.25c-1-2.69-2.17-4.22-3.49-4.6-.5,0-.95.29-1.36,1s-.64,1-.69,1a21,21,0,0,1-.54-2.27c-.1-.44-.25-1.08-.45-1.88s-.29-1.49-.38-2a2.26,2.26,0,0,0-.21-.58c0,.75.07,1.79.2,3.16s.2,2.47.22,3.21c0,.49,0,1,0,1.54s-.06.93-.1,1.21-.09.69-.17,1.25-.15,1.07-.22,1.5v.2a93,93,0,0,0-.42,15.52c-.24-1.58-.42-3.6-.56-6.07,0-.67,0-1.66-.1-3s-.1-2.34-.14-3-.11-1.55-.21-2.66-.23-2.15-.39-3.14a25.1,25.1,0,0,1-.32-2.7c0-.82-.09-1.78-.14-2.85s-.09-1.91-.12-2.52-.08-1.12-.13-1.53c-.19,2-.34,3.61-.44,4.5a45.28,45.28,0,0,0-.06,5.45c0,.66-.07.76-.26.31-.76-1.41-1.45-1.14-2.06.92a33.24,33.24,0,0,0-.9,4.19c-.64,4.45-.58,11.47-.2,18.64-.43-5.53-.84-10.83-1-14.38-.1-3.29-.08-6.08-.09-8.15,0-.94,0-2.49,0-4.45s0-3.44.06-4.49.08-2.08.16-3.33c-.17,1.88-.4,3.92-.57,5.84a29.79,29.79,0,0,1-.45,3.58,28.36,28.36,0,0,1-.89,2.84,25.31,25.31,0,0,0-.89,2.84,103.57,103.57,0,0,0-2.89,19.95c-.22,3.52-.27,10.53-1,15.22l-.09.61c0,.19,0,.15,0,0a1.9,1.9,0,0,1,0-.47,5.64,5.64,0,0,1,0-.63c0-.36,0-.67,0-.9,0,0,.08-.19.1-.51s.06-.67.1-1.08a14.16,14.16,0,0,0,.08-1.45c0-.57,0-1.12,0-1.64s0-1,0-1.5,0-.8,0-.92c.05-4.24.09-8.56.24-12.11s.47-8.14.92-13.24c.35-3.84.61-7,.81-9.54q.12-.8.18-1.29c0-.32.08-.67.14-1s.1-.66.12-.84a4.58,4.58,0,0,1,.16-.74,6.34,6.34,0,0,1,.19-.64c0-.13.13-.41.29-.83a8.57,8.57,0,0,0,.29-.94c.34-1,.63-2.1.87-3.14-.18.46-.36.88-.54,1.24l-.44.89a2.5,2.5,0,0,1-.46.65c-.2.2-.34.35-.43.42l-.63.5a2.85,2.85,0,0,1-.69.43,9.94,9.94,0,0,0-1.77,1.67,2.27,2.27,0,0,1-.53.5A3.6,3.6,0,0,1,37.71,88a19.93,19.93,0,0,1,1.48-3.47c.65-1.2,1.09-1.92,1.33-2.33a8.26,8.26,0,0,0,.54-1.15,2.61,2.61,0,0,0,.19-1c0-.3,0-.54,0-.69a8.15,8.15,0,0,0-.23-1c-.14-.54-.24-.91-.28-1-.11-.49-.22-1-.31-1.63s-.17-1.11-.21-1.5-.08-1-.12-1.87S40,70.88,40,70.62s0-1-.08-2.17,0-2-.06-2.26c-.06-1.91-.16-3.52-.27-4.79,0,.19.13,1.07.24,2.61s.21,2.75.28,3.63.2,1.87.36,3a12.33,12.33,0,0,0,.49,2.27A4.72,4.72,0,0,0,41.52,74a11.08,11.08,0,0,0,1.06,1.27l.74.76c.09.12.17.16.26.14a11.24,11.24,0,0,1-1.16-3,24.32,24.32,0,0,1-.3-4.22A45.44,45.44,0,0,0,40.65,59a48.74,48.74,0,0,1-1.28-7,31.11,31.11,0,0,1-.28-6.28c0,.08,0,.12.06.21v.32c.22,3.67.87,7,1.83,8.55a12.51,12.51,0,0,0,1,1.52c.48.65.83,1.16,1.06,1.51a17.17,17.17,0,0,1,1.19,2.56c-.15-.55-.62-1.83-1.41-3.83-.19-.54-.35-1.06-.5-1.56A8.87,8.87,0,0,1,42,53.36l-.12-1.42c0-.35-.06-.91-.09-1.64s0-1.25,0-1.57c0-1-.1-1.7-.14-2.22a29.08,29.08,0,0,0-.88-4.17,22.51,22.51,0,0,1-.83-4c-.16-1.59-.34-4-.45-7.53,0-.51,0-.77,0-1.29,0,.29,0,.43,0,.72.07.66.1,1.12.11,1.4.36,4.53.93,6.72,1.81,7.67a22,22,0,0,1,1.69,2,11.05,11.05,0,0,1,.63,1.1,9.18,9.18,0,0,0-.49-1.18l-.36-.85c-.15-.37-.27-.65-.33-.81a7.42,7.42,0,0,1-.27-.72,7,7,0,0,1-.25-.82q-.08-.31-.18-.87c-.07-.37-.14-.76-.19-1.16s-.15-.89-.24-1.47-.14-1.11-.25-1.82-.2-1.38-.29-2-.17-1.28-.27-2-.17-1.47-.24-2.23-.14-1.43-.2-2a94.94,94.94,0,0,1,0-13c.12-1.05.34-3.07.76-5.61a14.17,14.17,0,0,1,.86-3.71c-.07.76-.26,2-.53,4.1s-.4,3.66-.43,4.52A44.86,44.86,0,0,0,43,26.61a22.65,22.65,0,0,0,1.48,2.73A9.47,9.47,0,0,1,45.86,33a8.53,8.53,0,0,0,.09.9c0,.2,0,.3,0,.5,0-.15,0-.22.06-.38a12.63,12.63,0,0,0-1.14-6.4c-.2-.48-.47-1.11-.81-1.9,0-.1.16-.05.35.14a8.25,8.25,0,0,0,1,1.23.67.67,0,0,0,.88.05c.33-.2.6-.79.79-1.78a31.6,31.6,0,0,0,.48-4.19,38.14,38.14,0,0,0-.18-6.29,3.82,3.82,0,0,1,0-1.32c.37,2.73.79,6.14,1.23,10,.06.5.13,1.22.21,2.14s.12,1.57.13,1.95c.18,1.43.32,3.06.41,4.79v.26a7,7,0,0,0,.09.89c0-.33.09-.84.16-1.55s.13-1.21.17-1.48a20.53,20.53,0,0,0-.38-5.38s.14.14.29.43c.88,2,1.71,1.46,2.54-1.63a48.49,48.49,0,0,0,1.32-12.57c0-2.37-.35-6-.72-9.39.32,1.63.5,2.56.88,4.56a5.93,5.93,0,0,1,.14,1A117.46,117.46,0,0,1,54.37,24a31.64,31.64,0,0,1-.69,6.45,25.54,25.54,0,0,1-1.07,3.39,1.34,1.34,0,0,0-.23.62c0,.08.15,0,.37-.38l.6-.77c.26-.34.44-.58.52-.71l.43-.6a3.16,3.16,0,0,0,.43-.72c.08-.22.19-.51.31-.87a11.14,11.14,0,0,0,.35-1.15c.1-.41.21-.89.33-1.45a8,8,0,0,0,.16-1.4,26,26,0,0,1-.58,5.94,35.37,35.37,0,0,1-1.4,5.17c-.26.84-.47,1.53-.6,2.1A9.34,9.34,0,0,0,53,40.89c0,.32-.07.85-.1,1.79a11.54,11.54,0,0,1-.12,1.5,11.11,11.11,0,0,1-.35,1.47c-.16.51-.29.9-.37,1.13l-.61,1.44c-.31.74-.51,1.26-.6,1.52a34.12,34.12,0,0,1,1.75-3.45,43.53,43.53,0,0,0,2.59-5.14A16.82,16.82,0,0,0,56,39.27v.08c-.42,2.67-.8,4.07-1,4.87-.1.47-.53,2.24-1.21,6.22a37.06,37.06,0,0,0-.51,8,21.8,21.8,0,0,1,0,3.26,13.65,13.65,0,0,1-.78,2.94c0,.11,0,.17-.07.28a1.81,1.81,0,0,0-.16.62s.1,0,.23-.25A16.28,16.28,0,0,0,54.62,61a65.71,65.71,0,0,0,1.6-8.57,4.24,4.24,0,0,1,.06-.52l.07.12a7.25,7.25,0,0,1-.06.77l-.07.14v.39c-.12,1.48-.29,3.09-.52,4.82s-.54,3.74-.93,6-.66,3.71-.81,4.53c-.22,1.32-.47,2.8-.73,4.29A6.77,6.77,0,0,1,52.07,76a6.58,6.58,0,0,1-2.27,1.66v.07l.2-.06A15.39,15.39,0,0,0,53.15,76a21.52,21.52,0,0,1,2.34-1.42A7.51,7.51,0,0,0,58.64,70.82Z"/><path d="M102.8,27.44a49,49,0,0,0,1.89-9.06,50.73,50.73,0,0,0-.36-11.55,14.37,14.37,0,0,1,.3,1.72c0-.21-.1-.58-.18-1.08l.18,1.3c.05.26.07.39.12.66.33,3.28.51,5.83.52,7.44s-.14,4.16-.4,7.43a56.19,56.19,0,0,0-.09,8.24,6.93,6.93,0,0,1-1,4.56,5.5,5.5,0,0,1-.86.95,3.4,3.4,0,0,0,.76-.64c.24-.26.46-.51.63-.73s.41-.52.7-.9l.62-.83a9.68,9.68,0,0,0,1.63-4,31.45,31.45,0,0,0,.31-4.16,15,15,0,0,1,.27,2.77,65.44,65.44,0,0,1-.38,8.31,9,9,0,0,1-2.27,4.89c.53-.58,1.09-1.25,1.66-2l.41-.49.43-.51c.15-.19.28-.33.37-.44a7.45,7.45,0,0,0,.67-1.09,6.21,6.21,0,0,0,.49-1.54c.14-.66.23-1.13.28-1.36l.06-.17v.25c0,.73,0,2.35-.13,5.08,0,.21-.12,1.57-.35,4.31A7.8,7.8,0,0,0,109,46c0,.39,0,.74,0,1a7.77,7.77,0,0,1-.12,1.07,11,11,0,0,1-2.17,4.63v.08c.18-.19.69-.81,1.52-1.86a2.84,2.84,0,0,1,.91-.85,3.07,3.07,0,0,0,.73-1.58,23.76,23.76,0,0,0,.38-2.88c0-.33,0-.28.06.16s0,.75,0,1.25a30.76,30.76,0,0,1-.43,5.12,19.46,19.46,0,0,1-.72,3.13c-.3.85-.51,1.46-.67,1.79a6.24,6.24,0,0,1-.78,1.12,5,5,0,0,1-1.39,1.07c-.35.19-.36.27-.07.16s.79-.29,1.1-.42a3.64,3.64,0,0,0,1.11-.69,3.77,3.77,0,0,0,.64-.72,7.77,7.77,0,0,0,.59-1.24c.42-1,.67-1.63.76-1.8v.24c-.58,2-1,3.31-1.24,3.95a8.72,8.72,0,0,1-2.08,3.55,2.51,2.51,0,0,1-1,.65,2.38,2.38,0,0,1-.83.14l-1.1-.13a14.2,14.2,0,0,0,2.07.69,2.5,2.5,0,0,0,1.62-.42l1-.54a17.71,17.71,0,0,1-2,1.76c-.44.37-.9.79-1.38,1.17a3.63,3.63,0,0,1-1.46.77,2.65,2.65,0,0,1-1.38-.26.62.62,0,0,0-.32-.13l.38.49a6.2,6.2,0,0,0,.51.59c.17.18.36.38.55.61a3,3,0,0,1,.43.62c0,.06.2.6.61,1.69.23.6.6,1.48,1.11,2.63s.88,1.95,1.11,2.43a27.1,27.1,0,0,1,2.14,7.67,2.72,2.72,0,0,1-.12-.69s0,.12,0,.36c.09.85.08.85-.07,0-.09-.53-.15-.88-.15-1-1-4-3.57-8.48-6.58-10.46a3.14,3.14,0,0,0-2.92-.41c-1,.36-1.62.07-1.89-.83a5.14,5.14,0,0,1-.32-1.54.29.29,0,0,0-.07-.21,19,19,0,0,0,.31,4.32,13.33,13.33,0,0,0,1.71,4.68,5.35,5.35,0,0,0,.27.53,2.79,2.79,0,0,0,.34.48c.6,1,1.11,1.84,1.55,2.59a16.71,16.71,0,0,0-5.65-5.43,7.59,7.59,0,0,1-1-.51,2.71,2.71,0,0,1-.58-.66,3.19,3.19,0,0,1-.49-1.33,5.87,5.87,0,0,1,0-2,1.94,1.94,0,0,0-.25.81,28.91,28.91,0,0,0-.25,3.93,38.49,38.49,0,0,0,.34,5.36c.05.27.09.54.12.82s.07.52.11.72a4.91,4.91,0,0,1,.12.75,3.77,3.77,0,0,0,.11.74c.19,1.52.29,2.47.33,3-.69-4.06-1.78-7.48-2.93-9a.91.91,0,0,0-1.24,0,11.06,11.06,0,0,0-1.77,2.44s0-.13,0-.45.23-.78.43-1.38a14.63,14.63,0,0,0,.43-1.41c.7-2.34,1-3.71.84-4.4-.17.46-.32.89-.44,1.28s-.24.73-.35,1a5.07,5.07,0,0,1-.48.85,6.31,6.31,0,0,0-.45.68c-.09.15-.29.44-.62.88a9.9,9.9,0,0,1-.68.88c-.56.79-1.08,1.59-1.55,2.4a20.51,20.51,0,0,0-1.82,5c-.36,1.69-.73,4-1.16,6.78.38-3.9.68-7.17,1-9.35.11-.76.23-1.56.34-2.38s.2-1.44.25-1.87a14,14,0,0,1,.36-1.67A16.79,16.79,0,0,1,85.33,75a20.51,20.51,0,0,0,.78-2,55.36,55.36,0,0,1-3.31,6.16,35.92,35.92,0,0,0-4.1,11.36c-.28,1.58-.53,3.69-.8,6.13.22-3.1.51-6.5.92-9.77.12-.73.23-1.67.33-2.79s.18-1.78.22-2a22.9,22.9,0,0,1,1.68-6c-.09.26-.47,1-1.14,2.25s-1.19,2.34-1.58,3.15c-.17.26-.47.78-.9,1.59s-.71,1.37-.84,1.68-.33.81-.6,1.54a17.68,17.68,0,0,0-.65,2.13c-.17.69-.35,1.55-.55,2.58-.36,1.92-.71,4.56-1.09,7.66-.22,1.65-.44,4-.77,6.44A25.12,25.12,0,0,1,72,109.6l-.12,0a47.81,47.81,0,0,0,.9-8.27,170.92,170.92,0,0,1,1.74-19.18,39.55,39.55,0,0,1,1.44-6,15.37,15.37,0,0,1,2.24-4c-1.42,1.45-2.38,2.53-2.79,2.9a3.91,3.91,0,0,0-.77,1,8.79,8.79,0,0,0-.62,1.58c-.22.69-.39,1.21-.52,1.52-.22.52-.27.26-.15-.72a4.45,4.45,0,0,1,.06-.52v-.12c.29-2.16.54-3.82.77-5a2.49,2.49,0,0,1,.43-1.06,3.27,3.27,0,0,1,.87-.67c.28-.15.42-.25.43-.29s-.1-.09-.31-.19a2.28,2.28,0,0,1-.64-.46,2.59,2.59,0,0,1-.3-.73,7,7,0,0,0-.28-.87c0-.15-.18-.54-.44-1.26a9.84,9.84,0,0,1-.51-1.86c-.16-.87-.33-2.71-.55-5.85,0,.15.1.48.17,1s.1.85.13,1,.07.47.16.88a8.45,8.45,0,0,0,.22.9c.07.2.15.47.26.82a6.12,6.12,0,0,0,.29.78,2.88,2.88,0,0,0,.35.54A3.69,3.69,0,0,0,75,66a2,2,0,0,0,.46.25c.18.08.35.17.53.27l.45.27c.78.43,1.34.69,1.69.85v-.07l-.13,0a4.28,4.28,0,0,1-.54-.45c-.14-.15-.29-.32-.44-.51L76.63,66a1.64,1.64,0,0,1-.29-.61c-.08-.28-.14-.49-.18-.61a7.12,7.12,0,0,1-.18-.77c-.08-.41-.15-.68-.19-.81a7.36,7.36,0,0,1-.19-1,9.7,9.7,0,0,0-.19-1c-.17-1-.47-2.47-.9-4.38s-.72-3.26-.86-4A43.55,43.55,0,0,1,73,48.2v-.65L73,48c0,.29.07.47.07.54.68,3.44,1.55,5.91,2.39,7.05s1.45,1.81,1.76,1.83a4.57,4.57,0,0,0-.37-.94,8.89,8.89,0,0,0-.44-.82,17.74,17.74,0,0,1-.89-3.78c-.23-1.58-.38-2.59-.48-3s-.33-1.24-.58-2.19-.43-1.63-.56-2.08a25.4,25.4,0,0,1-.55-6.17c0-.5,0-.41.07.24a4.79,4.79,0,0,0,0,.71c.27,2.38.75,4.19,1.52,5a5.53,5.53,0,0,0,.81.62,4.4,4.4,0,0,1,.81.63,10,10,0,0,1,1.29,1.53,4.53,4.53,0,0,0,.34.38l-.54-1-.54-.92a5.39,5.39,0,0,1-.4-.86,6.74,6.74,0,0,1-.33-1.08,8.55,8.55,0,0,1-.19-1.18,13.67,13.67,0,0,0-.36-2.1c-.15-.63-.36-1.29-.65-2.26s-.49-1.73-.58-2.12a21.41,21.41,0,0,1-.59-3.12,64.75,64.75,0,0,1-.29-7v-.52c0,.37,0,.55,0,.9l0,.64c.27,3.64.72,6,1.38,7.48a8.85,8.85,0,0,0,1,1.72c.57.84.87,1.24.92,1.3s0-.12,0-.36a14.42,14.42,0,0,1-1.06-3.76c0-.29,0-.79-.09-1.51s-.09-1.25-.1-1.57c-.12-1.34-.22-2.63-.29-3.8-.17-3-.21-6.62-.09-10.43,0-.26,0-.63,0-1.1a8.13,8.13,0,0,1,.09-1.09A36.12,36.12,0,0,1,77.33,3c.31-.87.21-.45-.25,1.59-.11.48-.21,1-.31,1.59v.11a45.59,45.59,0,0,0,.36,15c.64,3.75,1.48,6,2.55,6.85a5.24,5.24,0,0,0,.49.35,5.76,5.76,0,0,1,.48.36,2.83,2.83,0,0,1,.35.35,2.9,2.9,0,0,1,.38.52,6.89,6.89,0,0,1,.39.74,11.77,11.77,0,0,1,.73,3c-.06-1.17-.17-2.36-.33-3.5A26.69,26.69,0,0,1,82,25.09q0-1.11,0-3.51c0-.17,0-.76-.07-1.78s-.08-1.87-.12-2.55,0-1.18,0-1.52.15-.4.2,0c0,.17,0,.33,0,.5l.08.51c.54,5.51,1.51,9,2.85,10.41,0,0,.09,0,.14.11a4.54,4.54,0,0,1,.66.77,4.92,4.92,0,0,1,.35.8,4.33,4.33,0,0,1,.19,1.31c0,.07,0,.22,0,.44s0,.55.08.55c.1-.27.15-.4.26-.67a15.42,15.42,0,0,0,.45-3.55c0-1.18,0-2.46-.11-3.85a3.74,3.74,0,0,0,0-.55c0-.21,0-.41-.05-.62v-.55c0-2.55-.11-4.63-.22-6.19.14.75.29,1.78.45,3.11.41,3.73,1.1,6.38,2,8a9.86,9.86,0,0,1,.88,2,7.28,7.28,0,0,1,0,2.33c-.09.37-.26.95-.52,1.72A16.25,16.25,0,0,0,91,28.41a11.71,11.71,0,0,1,.65-1.54,9.68,9.68,0,0,1,.79-1.26,6.21,6.21,0,0,0,.72-1.34c.82-1.85,1.34-5.38,1.63-10.35-.12,4.13-.2,6.94-.32,8.27a46.7,46.7,0,0,1-.73,5.08,38.85,38.85,0,0,0-.68,5c0-.2.12-.51.22-.93s.2-.74.26-1,.15-.48.26-.81a2.63,2.63,0,0,1,.39-.77,2.8,2.8,0,0,1,.57-.5,3.51,3.51,0,0,1,.89-.5A3.68,3.68,0,0,0,97,26.7c1.09-1.34,1.76-4.16,2-8.56,0-.08.08-.66.25-1.73,0,.7,0,1.53,0,2.49s0,1.82,0,2.55,0,1.55,0,2.45,0,1.69,0,2.36a11.38,11.38,0,0,0,.08,1.31,4.12,4.12,0,0,0,.31,1.23q.23.59.63.36a1,1,0,0,0,.36-.37,5.8,5.8,0,0,0,.32-.69,3.4,3.4,0,0,1,.23-.54,3,3,0,0,1,.14,1.17c0,2.66-.39,4.54-1.23,5.84l.66-.85a11.5,11.5,0,0,0,1.5-3.87A20.06,20.06,0,0,1,102.8,27.44ZM95,49.9c-1.29,1.42-2,2.25-2.21,2.4v-.2C93,52,93,52,93,51.88A24.5,24.5,0,0,0,97,43.73a14.92,14.92,0,0,1,.71-2.32,16.81,16.81,0,0,0,.57-1.76,6.21,6.21,0,0,0-.38.56,4.68,4.68,0,0,1-2.2,2,9.17,9.17,0,0,0-1.41.81,23.31,23.31,0,0,0-2.36,2.32c-.5.54-1.06,1.09-1.69,1.66v-.09l.07-.11a30,30,0,0,0,2.56-4.34,8.6,8.6,0,0,0,.82-4,2.45,2.45,0,0,0-.06-.6s-.11.11-.2.31a5.47,5.47,0,0,1-.5.9,3,3,0,0,1-.79.67,8.48,8.48,0,0,0-.85.54,2,2,0,0,1-.42.33.79.79,0,0,1-.43.07l-.34-.06-.36-.18a3.42,3.42,0,0,0-.46-.21A9.36,9.36,0,0,0,87,39.45a6.55,6.55,0,0,0-2.5.17,4.37,4.37,0,0,0-1.37.53c1.87-.72,3.17-.63,3.9.32a2.64,2.64,0,0,1,.5,1.48,4,4,0,0,0,.38,1.51.75.75,0,0,0,.57.28,3.47,3.47,0,0,0,.77-.06,5.78,5.78,0,0,0,.77-.19,4.45,4.45,0,0,0,.58-.21c.13-.07.2-.07.2,0s-.05.27-.28.65-.59.92-1.09,1.65a19.44,19.44,0,0,0-1.23,2,7.11,7.11,0,0,0-.65,2.12,9.25,9.25,0,0,1-.37,1.73,5,5,0,0,1-.81,1.24,5.46,5.46,0,0,1-.61.71,25.58,25.58,0,0,0,3.36-2.1,11.85,11.85,0,0,0,3.7-4.43,1.41,1.41,0,0,1,.14-.39c.32-.72.36-.78.14-.2a22.81,22.81,0,0,1-1.23,2.85c-.45.87-1,1.84-1.72,2.94s-1.23,2-1.59,2.54a14.06,14.06,0,0,0-1.31,4c-.1.41-.18.74-.25,1a2.71,2.71,0,0,1-.35.78,6,6,0,0,1-.38.54c-.09.11-.28.32-.58.63s-.49.51-.58.59a10.25,10.25,0,0,0,1.48-.7,12.19,12.19,0,0,0,1.52-.92,6.67,6.67,0,0,0,1.22-1.12,16.62,16.62,0,0,0,1.05-1.37c.32-.47.7-1.09,1.16-1.87.09-.14.21-.35.37-.64s.19-.28.1,0l-.27.71c-.37.83-1,2.14-1.77,3.86s-1.42,2.95-1.81,3.77c-.05.12-.2.44-.45.94s-.41.81-.48.94l-.45.75a5.56,5.56,0,0,1-.56.77l-.58.61a6.83,6.83,0,0,1-.75.62l-.81.57c-.34.23-.82.48-1.36.77a31.24,31.24,0,0,0,3-1.72c1.53-.93,2.58-1.56,3.11-1.82a3.28,3.28,0,0,0,1.54-1.36,1.45,1.45,0,0,1,.43-.59.91.91,0,0,1,.65,0l.07,0a9.73,9.73,0,0,0,2.47,0,2.86,2.86,0,0,1,1.13,0,2.58,2.58,0,0,1,.82.52c.08.1.14.13.18.1s.06-.11,0-.26a2.67,2.67,0,0,0,0-.54c0-.24,0-.44,0-.59a2,2,0,0,1,.08-.59,2.94,2.94,0,0,1,.23-.69c.08-.16.24-.4.43-.72a8.62,8.62,0,0,1,.49-.74,16.42,16.42,0,0,0,1-2.28,4,4,0,0,0,.31-1.41,2.1,2.1,0,0,0-.38.54,2.12,2.12,0,0,1-.44.59.82.82,0,0,1-.52.14,3.29,3.29,0,0,0-1.86.88c-.18.2-.46.5-.85.88a11.58,11.58,0,0,1-.85.8,9.06,9.06,0,0,1-.81.74,5.24,5.24,0,0,1,.76-.89,17.21,17.21,0,0,0,4.25-8.31c.34-1.89.63-3.49.91-4.74a16.46,16.46,0,0,0,.29-1.93,4.21,4.21,0,0,0-.27.56A5.48,5.48,0,0,1,98,47.62a3.15,3.15,0,0,1-1,.7,3.51,3.51,0,0,0-1.07.72Z"/><path d="M128.58,57.4c0-.5,0-1,0-1.28a21.65,21.65,0,0,0-.92-3.14,14.75,14.75,0,0,1-.87-3.7c-.07-1-.06-2.11,0-3.43.21,2.73.63,4.33,1.28,5l.69.54a5.43,5.43,0,0,1,.8.73,6.73,6.73,0,0,1,.61.87c0,.14.07.21.1.2a6.81,6.81,0,0,0-.47-1.29,5.55,5.55,0,0,1-.45-1.24,14.24,14.24,0,0,1-.22-1.5c0-.24-.05-.78-.07-1.64a17.28,17.28,0,0,0-.12-2.06c-.07-.5-.21-1.27-.45-2.32s-.36-1.69-.4-1.89a40.66,40.66,0,0,1-.75-7.66c0-.17,0-.48.07-1,.12,3.8.58,5.81,1.43,6.64a5.46,5.46,0,0,1,1.09,1.33c.08.15.24.57.5,1.24l.06.08v-.08l-.05-.15a20.62,20.62,0,0,0-.66-2.44,13.87,13.87,0,0,1-.46-4c0-1.82,0-3,0-3.45-.07-.83-.23-2-.5-3.68s-.44-3-.51-3.88a47.11,47.11,0,0,1,1-13.38,7,7,0,0,1,.36-1.36,9.32,9.32,0,0,1-.12,1.8,36.66,36.66,0,0,0-.46,7.38A15.8,15.8,0,0,0,130.44,25c.74,1.51,1.68,2.29,2.7,2.35a3,3,0,0,1,1.23.27,4.53,4.53,0,0,1,1,1.11c.12.12.18.18.2.18s0-.13,0-.37a3.66,3.66,0,0,0-.19-.64,6.08,6.08,0,0,1-.25-.79c-.08-.28-.15-.55-.23-.8-.11-.43-.23-1.07-.36-1.9s-.21-1.43-.25-1.76a3.46,3.46,0,0,1-.17-.69c-.07-.39-.13-.69-.17-.89-.15-1-.31-2.29-.5-3.89,1,5.41,2.48,8.35,4.42,9.46.23.12.48.23.74.35s.49.2.66.25a2.33,2.33,0,0,1,.57.31,3,3,0,0,1,.6.58A6.16,6.16,0,0,1,141,29a3.17,3.17,0,0,0,.17.27,13.57,13.57,0,0,0-.48-1.81,9.14,9.14,0,0,1-.42-2.73,26,26,0,0,0-.16-3.07c0-.13,0-.35,0-.66a3.47,3.47,0,0,0-.09-.66c-.19-2-.28-3.14-.28-3.42s0-.33.06-.54v.21c0,.36.06.6.06.74.63,4.55,1.48,7.16,2.54,8.28a.72.72,0,0,0,.17.18,6.75,6.75,0,0,1,.57.75,3.57,3.57,0,0,1,.34.94c.12.44.23.44.35,0s.11-.86.23-1.64a11.52,11.52,0,0,1,.41-1.89,20.81,20.81,0,0,0,1.16-5.89V17c0-.64,0-1.46-.11-2.48a43.56,43.56,0,0,1,.1,7.68c0,.13,0,1.67-.07,4.35a7.3,7.3,0,0,0,.33,2.74,2.07,2.07,0,0,0,.06-.47,5.44,5.44,0,0,1,0-.57c0-.19.06-.41.11-.67a2.86,2.86,0,0,1,.32-.78q.18-.2.84-1.05a6.33,6.33,0,0,0,1-1.86,13.45,13.45,0,0,0,.52-3.68,46.94,46.94,0,0,0-.27-5.53c.45,3,.77,5.64,1,7.85.11,1.28.47,1.75,1.08,1.46a3.75,3.75,0,0,0,.69-.52.74.74,0,0,1-.12.3,4.06,4.06,0,0,1-.49.86c-.17.24-.31.45-.43.61s-.23.36-.34.55a5.37,5.37,0,0,0-.35.75l-.4,1a9.83,9.83,0,0,0-.19,3.3,6.27,6.27,0,0,1,.38-2.4,5.38,5.38,0,0,1,1.58-1.35,2.69,2.69,0,0,0,1-1.05,9.53,9.53,0,0,0,.69-1.95c.77-3.29.83-7.48.18-12.91,0-.22-.09-.72-.17-1.48-.19-1.3-.28-2-.28-2.2.2.93.3,1.39.51,2.3.38,2.06.67,3.93.86,5.63s.34,3.93.47,6.58.23,4.32.31,5.16a14.41,14.41,0,0,0,1.35,5.22c.26.48.48.62.66.44a2.22,2.22,0,0,0,.32-1.2,12.1,12.1,0,0,0-.22-3.85,2.72,2.72,0,0,1-.17-.48c-.15-.51-.23-.78-.23-.82a3,3,0,0,1,.23.53,10,10,0,0,1,.4,1.24c.11.45.19.78.22,1s.1.65.17,1.27.13,1,.17,1.2a10.35,10.35,0,0,1,.1,2A9.12,9.12,0,0,1,157,35.6c-.08.3-.16.67-.26,1.09a6.41,6.41,0,0,1-.33,1.06,3.22,3.22,0,0,1-.63.92l-.12.17-.93.83h.06l.06-.08a3.47,3.47,0,0,0,.78-.46l.81-.64c.28-.22.53-.42.72-.59.77-.62,1.2-1.82,1.23-3.66a26.87,26.87,0,0,0-.44-4.11,25.07,25.07,0,0,1,.58,8.41,22,22,0,0,1-2.08,6.09,8.16,8.16,0,0,1-1.39,2.28,3.3,3.3,0,0,1-2,.69c-.37,0-.22,0,.51.14h.2l.2,0a.62.62,0,0,0,.23,0,.4.4,0,0,1,.2,0,.45.45,0,0,0,.2,0h.23a.25.25,0,0,1,.18.07c.76.09,1.44-.38,2-1.43a16.12,16.12,0,0,1,.88-1.67,10.28,10.28,0,0,1-.66,1.89,7.22,7.22,0,0,1-1.42,2.3,5.9,5.9,0,0,1-3,1.61,2.81,2.81,0,0,0-.58.07,5.36,5.36,0,0,1-3.5-.31l-.34-.21c-.15-.1-.3-.18-.43-.25s-.24-.12-.31-.17a2.1,2.1,0,0,0,.67.77,9.92,9.92,0,0,0,2.21,1.39,6.45,6.45,0,0,1,1.48.81c.56.41,1.05.3,1.45-.35a2.34,2.34,0,0,0,.18-.28,5.91,5.91,0,0,0,.3-.64c.08,0,.1,0,.06.07v.14c-.05.19-.15.67-.33,1.43a9.25,9.25,0,0,0-.28,1.74,8,8,0,0,1-.11,1.67,4.76,4.76,0,0,0-.08.66v.32a13.49,13.49,0,0,1,1.05-2,3,3,0,0,0,.49-1.11,4.1,4.1,0,0,0,.12-1.06,10.23,10.23,0,0,1,.06-1.25,2.33,2.33,0,0,1,.33.77,2.1,2.1,0,0,0,.13.58c.08.3.15.54.18.72a22.1,22.1,0,0,1,.25,3.33,8.14,8.14,0,0,1,.08.88,9.35,9.35,0,0,1,0,1,4.32,4.32,0,0,0,.07,1.44c.07.08.16.06.24-.06a2.24,2.24,0,0,0,.53-.74,6.5,6.5,0,0,0,.42-1.06,5.52,5.52,0,0,0,.2-.94,7,7,0,0,0,0-1v-.2c0-.17,0-.29,0-.33.07.16.1.24.16.4a11.59,11.59,0,0,1,.65,3.48c0,.6.12,1.06.16,1.34a3.33,3.33,0,0,0,.46,1.24,7.22,7.22,0,0,0,.94,1.15,10.16,10.16,0,0,1,.86,1c.12.11.36.36.71.75s.62.69.79.91.15.21.2.28a5.73,5.73,0,0,1,.44.52,5.4,5.4,0,0,1-.56-.47,11.09,11.09,0,0,0-1.9-1.43,19.32,19.32,0,0,0-1.91-1,4.43,4.43,0,0,0,.62.73,7,7,0,0,1,1.41,2c.13.21.4.7.8,1.43A11.5,11.5,0,0,1,162,70.5a29.74,29.74,0,0,1,1,4v.35a.31.31,0,0,1-.12.24,2,2,0,0,0-.12-.43l-.27-.83c-.11-.31-.21-.6-.3-.89a1.87,1.87,0,0,0-.19-.48A13.87,13.87,0,0,0,158.92,68a3.86,3.86,0,0,0-1.47-1,.41.41,0,0,0-.32,0,1.12,1.12,0,0,0-.19.19,1.65,1.65,0,0,0-.1.19c-.1.22-.2.18-.3-.11a6.59,6.59,0,0,1-.17-1.81,3.76,3.76,0,0,0-.85-2,4.33,4.33,0,0,0,.25.63,2.57,2.57,0,0,1-.28,2.34,3.18,3.18,0,0,0-.21,2c.05.14.16.59.33,1.33,0,0,.06.28.16.72s.18.78.24,1a3,3,0,0,1-.33-.58l-.3-.69a6.26,6.26,0,0,1-.25-.58,12.35,12.35,0,0,0-.89-1.5,3.72,3.72,0,0,0-1.09-1.08,1.64,1.64,0,0,0-1.91.33c-.11.1-.17.16-.19.16s0-.11,0-.27a2.52,2.52,0,0,1,.33-.73,2.93,2.93,0,0,0,.33-.77,2.36,2.36,0,0,0,.07-.91c-.07-.68-.19-1.23-.23-1.54v.12a3.76,3.76,0,0,1-1.09,2.91,3.39,3.39,0,0,0-1,2.09,10.69,10.69,0,0,0,0,2.54c.05.34.12.75.17,1.21-.22-.67-.45-1.42-.69-2.26a26,26,0,0,0-1.4-4.51,3.17,3.17,0,0,0-.62-.73c-.28-.26-.55-.49-.81-.7l-.93-.71a7.35,7.35,0,0,1-.76-.63A12.29,12.29,0,0,1,142,60.18l-.11-.13a9.05,9.05,0,0,0,3.79,2.23,12.37,12.37,0,0,1,2.11.81.89.89,0,0,0-.36-.29,2,2,0,0,0-.35-.29c-.43-.32-.73-.54-.9-.68a3,3,0,0,1-.52-.54,9,9,0,0,1-.7-1.12,5.32,5.32,0,0,0-.51-.85c-.2-.28-.39-.52-.57-.74s-.41-.43-.67-.67l-.67-.61c-.18-.17-.42-.39-.72-.64a9,9,0,0,0-.73-.59c-.3-.3-.35-.46-.15-.46l.34.06h.29a4.32,4.32,0,0,0,.84,0,1.57,1.57,0,0,1,.6,0,3.1,3.1,0,0,1,.91.38l.68.33c-.11-.09-.29-.24-.53-.46s-.42-.37-.53-.46c-.44-.44-1-1-1.61-1.73a3.16,3.16,0,0,0-1.47-.93c-.64-.22-1.06-.36-1.25-.4s-.58-.45-1.07-.81a14.19,14.19,0,0,0-1.18-.82l-.28-.14c0,.05.19.16.39.35a17.11,17.11,0,0,1,1.13,1.3,6.73,6.73,0,0,0,1.43,1.34.51.51,0,0,0,.17.14l.5.4a1.71,1.71,0,0,1,.33.33c.11.13.09.24-.07.33a2.87,2.87,0,0,1-.82.21,2.74,2.74,0,0,1-.58.07,3.65,3.65,0,0,1-1.47-.72.85.85,0,0,0-.23-.06s0,.06,0,.2a16.87,16.87,0,0,0,2,2.29c.26.21.62.48,1.07.8s.74.56.89.67a3,3,0,0,1,.45.38l.11.13a6.69,6.69,0,0,1-1-.12,3.41,3.41,0,0,0-1.21-.06c-.19,0-.39.06-.56.07h-.41a.78.78,0,0,1-.37-.13l-.31-.16a2.74,2.74,0,0,1-.39-.22,4.59,4.59,0,0,1-.42-.31c-.07-.06-.17-.06-.17,0a.76.76,0,0,0,.1.23c.5.89.8,1.41.9,1.58a13.22,13.22,0,0,0,1.38,2.43,12.78,12.78,0,0,0,1.08,1.19c.42.4.9.84,1.44,1.33s1,.83,1.25,1l.55.49q.3.27-.06,0a2,2,0,0,0-.3-.22,18.61,18.61,0,0,0-3.95-2.28,9.7,9.7,0,0,1-1.64-.79l-.26-.12s-.05.09,0,.17a1.94,1.94,0,0,0,.29.46,5,5,0,0,1,.3.46,3.52,3.52,0,0,1,.34.7,6,6,0,0,1,.24.72c0,.21.09.47.15.8a5.47,5.47,0,0,0,.15.7c.1.29.19.6.29.94l.33,1.09c.12.38.21.7.26.94a12,12,0,0,1,.46,3.83,9.25,9.25,0,0,0-2.16-5.78,1.75,1.75,0,0,0-2.14-.53c-.15.07-.24.1-.26.08s0-.08.08-.18a7.31,7.31,0,0,1,.49-.7,4.26,4.26,0,0,0,.41-.6,1,1,0,0,0,0-.55,2.67,2.67,0,0,0-.42-1c-.08-.15-.12-.22-.12-.2s0,.11.07.25a2.52,2.52,0,0,1,0,.95,1.41,1.41,0,0,1-.52.77,5,5,0,0,1-.63.46,3.93,3.93,0,0,0-.78.67,11.87,11.87,0,0,0-1.68,5.14v0c0-.38,0-.93,0-1.64s0-1.22,0-1.48-.1-1-.3-2.49a6.19,6.19,0,0,0-1-2.43s0,.32.14.83a7.36,7.36,0,0,1,.23,2.45c-.05-.07-.12-.18-.23-.32a2.09,2.09,0,0,0-.34-.38.61.61,0,0,0-.42-.17c-.32-.07-.72.11-1.22.57-.8.72-1.49,2.16-2.17,4.33a24.65,24.65,0,0,0-.82,3.13c-.11.54-.18.51-.18-.08s0-.85,0-1.14c0-.75.22-2.37.44-4.79a36.5,36.5,0,0,1,.92-4.1c.08-.34.13-.65.17-.94a1.88,1.88,0,0,0-.06-.82c-.08-.27-.15-.48-.2-.63l-.31-.79a5.39,5.39,0,0,0-.37-.83,44.14,44.14,0,0,1-1.32-4.52c.08.12.21.39.41.78a5.45,5.45,0,0,0,.4.73l.38.57a6.32,6.32,0,0,0,.44.62c.11.14.26.31.46.53a5.94,5.94,0,0,0,.7.6,8,8,0,0,1,1,1c.08.07.13.11.17.11s-.17-.27-.3-.46-.2-.32-.24-.37a2.64,2.64,0,0,0-.21-.32,1.61,1.61,0,0,1-.19-.33,2,2,0,0,0-.09-.3,2.54,2.54,0,0,1-.1-.36c0-.1,0-.24-.06-.4a4.08,4.08,0,0,1-.06-.53C128.63,57.81,128.59,57.6,128.58,57.4Zm16.67-15.31a2.47,2.47,0,0,1-.75.13s.08-.3.36-.84l.35-.48c.15-.22.28-.41.38-.57s.21-.37.35-.61.24-.46.32-.62a2.29,2.29,0,0,0,.18-.62,2.59,2.59,0,0,0,0-.66,2.25,2.25,0,0,0-.16-.63,3,3,0,0,0-.43-.66,1.76,1.76,0,0,0-1.48-.65c-.16,0-.12.12.11.34a2.55,2.55,0,0,1,.78,1.58c0,.27-.11.36-.46.26h-.11a.93.93,0,0,0-1,.31,3.08,3.08,0,0,0-.59,1,11.91,11.91,0,0,0-.36,1.38l-.06.08a1.36,1.36,0,0,1-.3.72c-.07-.31-.23-1.25-.47-2.89,0-.33-.05-.92-.09-1.74,0-.49-.26-.68-.63-.49a3.55,3.55,0,0,1-.57.23,2.37,2.37,0,0,1-.43.05,1.33,1.33,0,0,1-.32,0l-.46-.16-.51-.2a5.06,5.06,0,0,0-2.75-.18l.63.15a1.14,1.14,0,0,1,.52.12l.42.24a1.42,1.42,0,0,1,.37.33c.11.13.22.27.31.4a4.47,4.47,0,0,1,.28.5,3.89,3.89,0,0,1,.25.69,18.92,18.92,0,0,0,.89,2,.94.94,0,0,1,.19.64.8.8,0,0,1-.15.44,3.66,3.66,0,0,0-.33.4,4.56,4.56,0,0,0-.32.51,5.88,5.88,0,0,0-.36.86,6.54,6.54,0,0,1-.3.78,2.47,2.47,0,0,1-.77,1,6.18,6.18,0,0,1-1.63.78,2.09,2.09,0,0,0,.8,0l.87-.06a4.06,4.06,0,0,0,.92-.16c.42-.11.79-.13.92-.17a1.47,1.47,0,0,1,.52,0l.69,0a.5.5,0,0,0,.41-.16l-.34-.52a4,4,0,0,1-.12-2.46l.06-.24c0-.26.08-.55.13-.87s.06-.42.06-.47c.05.12.07.19.11.31.11.42.2.79.27,1.1.61,2.29,1.75,3.15,3.4,2.71a3.19,3.19,0,0,0,2.59-3.86c0-.47-.11-.58-.23-.31s-.2.46-.23.56a1.3,1.3,0,0,1-.44.37,2.14,2.14,0,0,1-.63.17,2.08,2.08,0,0,0-.55.12A.4.4,0,0,0,145.25,42.09Z"/><path d="M169.93,67.24a7.43,7.43,0,0,0,.91,2.42,21.32,21.32,0,0,1,1,2,2.64,2.64,0,0,1,.08.41l-.07-.19-.2-.38a11.42,11.42,0,0,0-3.86-4.34,1.3,1.3,0,0,0-1.73.27,2.23,2.23,0,0,0-.58.87l-.11.05v-.11c0-.18.06-.37.11-.57a4.24,4.24,0,0,1,.21-.68,5.3,5.3,0,0,0,.19-.55,14.62,14.62,0,0,1,.85-2.53l.22-.35a.37.37,0,0,1,0-.17,1.15,1.15,0,0,1,.16-.35l-.11.23c-.22.35-.71,1.09-1.46,2.17a9.07,9.07,0,0,1-.73.89,10.16,10.16,0,0,0-.76.9,4.12,4.12,0,0,0-.47,1.11,7.94,7.94,0,0,0-.29,2.47c0,.24,0,.53.05.85s0,.21-.11,0a.16.16,0,0,1-.07-.11,2.75,2.75,0,0,1-.12-.51c0-.19-.06-.41-.1-.66s-.06-.43-.07-.54c-.18-1-.28-1.48-.28-1.55a6.46,6.46,0,0,1,.17-2.52c.1-.33.21-.8.36-1.4s.24-1,.27-1.21c-.52,1.86-1.08,2.93-1.75,3.33a5.87,5.87,0,0,1-.67.33,3.49,3.49,0,0,0-.79.43A7.63,7.63,0,0,0,157.49,71a31.86,31.86,0,0,0-1.21,5.4c-.05.26-.08.39-.15.66a3,3,0,0,1,.08-.39c0-.24,0-.36,0-.6,0,.11,0,.16,0,.27v.06c-.06.33-.11.49-.15.49a16.33,16.33,0,0,1,.15-1.85c.11-1.11.15-1.78.18-2a20.17,20.17,0,0,1,.39-2.33,12,12,0,0,1,.5-1.67c.16-.41.43-1.15.84-2.18a10.22,10.22,0,0,1,2.32-3.6,6.68,6.68,0,0,0,1-1.18l-.12.06a.17.17,0,0,1-.06.12l-.11.12a7.6,7.6,0,0,1-1.82,1.37c-.88.52-1.44.87-1.71,1.06-.48.41-1.35,1.29-2.58,2.59l-.49.48a5.9,5.9,0,0,0,.59-.7c.25-.32.49-.62.7-.87l.6-.72A30.18,30.18,0,0,1,159,62.66c.79-.78,1.33-1.3,1.49-1.5a5.23,5.23,0,0,1,1.17-1c.28-.21.29-.44,0-.7a3,3,0,0,0-.16-.25,4,4,0,0,1-.36-1.83,4.18,4.18,0,0,1,0-.59c-.05-1-.06-1.7-.06-2a51.77,51.77,0,0,0-.57-6c.06.43.15.9.26,1.4s.2,1,.29,1.53.16,1,.23,1.39c.31,1.7.72,2.69,1.2,3.05s.87.68.91.72a8.87,8.87,0,0,1,.67.66l.85.85a6.56,6.56,0,0,1-1.3-2.47,10.73,10.73,0,0,1,.15-3,27.6,27.6,0,0,0,.15-5.23,52.57,52.57,0,0,1-.1-6.7c0-.37.08-.86.13-1.46a25.17,25.17,0,0,0,.43,7.71,6.66,6.66,0,0,0,1.4,2.84,2.59,2.59,0,0,0,.62.64,6.73,6.73,0,0,1-.72-1.5,4.41,4.41,0,0,1,.08-1.84,17.61,17.61,0,0,0,.9-3,13,13,0,0,0,.14-2.9c-.07-1.28-.15-2.43-.26-3.42s-.24-2.21-.38-3.68-.26-2.65-.33-3.52a8.15,8.15,0,0,1,.3,1.52c.1.71.16,1.17.2,1.41.41,2.23.94,3.59,1.58,4.25a4.33,4.33,0,0,1,.46.41,3.9,3.9,0,0,1,.51.57,7,7,0,0,1,1.53,2.74,14.26,14.26,0,0,0-1-2.74,12.5,12.5,0,0,1-.37-1.33c-.09-.44-.17-1-.25-1.69s-.12-1.26-.16-1.61-.21-1.17-.4-2.09-.28-1.45-.28-1.57a37.36,37.36,0,0,1-.78-7.2c0,.33.11.84.22,1.5s.2,1.15.26,1.48.15.75.28,1.26a9.59,9.59,0,0,0,.48,1.43,3.62,3.62,0,0,0,1.37,1.73,5.16,5.16,0,0,1,1.38,1.24,10.33,10.33,0,0,1,1,2.27,3.21,3.21,0,0,1-.23-.9c-.07-.24-.33-1-.76-2.3a21.92,21.92,0,0,1-.88-3.32c0-.06-.07-.53-.2-1.41s-.24-1.57-.31-2a3.15,3.15,0,0,1-.06-.61c-.15-1.07-.29-2.67-.43-4.86s-.25-3.65-.31-4.22c-.11-1.14-.19-3.1-.34-5.86s-.22-4.15-.18-4c.05-.39.07-.59.12-1q0-.85.06,0c0,.68.06,1,.11,1.7a98.55,98.55,0,0,0,1.6,13.43,13.92,13.92,0,0,0,2.57,6.33,12.2,12.2,0,0,1,2.23,3.59,3.9,3.9,0,0,0,.23.57,27.06,27.06,0,0,0-2.06-6.39c-.11-.24-.17-.36-.28-.61a3.56,3.56,0,0,1,.6.66,3.53,3.53,0,0,0,.8.8.59.59,0,0,0,.71-.06c.3-.22.63-1.13.86-2.79a34.45,34.45,0,0,0,.35-4.49c0-1.08,0-2,0-2.87.15,1.34.33,3.57.51,6.51.2,3.14.6,4.54,1.14,4.5.29,0,.71-.41,1.21-1.23.11-.2.18-.29.2-.25a.84.84,0,0,1-.09.35,11.33,11.33,0,0,1-.29,1.42,12.12,12.12,0,0,0-.34,2.09c-.05.9-.1,1.68-.18,2.32a10.24,10.24,0,0,0,.72-2.28,18.5,18.5,0,0,1,.78-2.64,11.66,11.66,0,0,0,1-2.57,29.72,29.72,0,0,0,.63-4A122.67,122.67,0,0,0,182.23,5l.11-.12V4.72A16,16,0,0,1,182.6,8c0,1.58,0,3.37,0,5.33s0,3.08,0,3.44c0,.73,0,1.8.09,3.18s.12,2.23.14,2.56a20.32,20.32,0,0,1-.92,6.2,9.13,9.13,0,0,0-.23,2.95,6.31,6.31,0,0,1,.8-3.54,1.44,1.44,0,0,1,.4-.44l.38-.25a1.4,1.4,0,0,0,.34-.49,6.75,6.75,0,0,0,.43-1.29,25.08,25.08,0,0,0,.17-6.84,40.48,40.48,0,0,1,.17,8.32c-.07.92-.11,1.6-.11,2l-.06.09a57.9,57.9,0,0,0,0,6.86,25.61,25.61,0,0,1-.12,3.52c-.11,1.31-.18,2.22-.18,2.75v.16a8.27,8.27,0,0,1,1-4.15,5.38,5.38,0,0,0,.57-2.12c0-.45,0-1.85,0-4.28a.78.78,0,0,1,.11-.37c.08.88.23,2.1.4,3.58.2,1.73.32,3.09.4,4.18,0,.44.06,1.1.08,2s0,1.6.08,2.23a14.79,14.79,0,0,0,1.08,4.34,5.36,5.36,0,0,1-.18,3.56c-.08.19-.19.49-.35.91a8,8,0,0,0,.38-.84,8.27,8.27,0,0,0,.35-1c.06-.21.14-.5.26-.86a4.15,4.15,0,0,0,.2-1c0-.32,0-.65,0-1a21.23,21.23,0,0,0-.37-3.22,30.06,30.06,0,0,1-.43-3.2,11.6,11.6,0,0,0,.2,1.32c.13.71.26,1.27.37,1.68a20.8,20.8,0,0,1,.91,5c0,.24.07,1.14.17,2.59a16,16,0,0,0,.8,4.21,14.1,14.1,0,0,1,.64,2.26,1.86,1.86,0,0,1-.88,1.88c-.11.08-.15.13-.11.13l.69-.19a2.53,2.53,0,0,0,1.34-2.81c0-.18-.27-1.08-.69-2.77a9.63,9.63,0,0,0-.29-1.17c.42,1.16.77,2.23,1,3.21,0,.13.17.76.4,1.85,0,.18.11.45.21.82s.17.65.2.81.09.52.15.8a4,4,0,0,1-.06,1.34.92.92,0,0,1,0,.3.26.26,0,0,0,.1.24l.18.18.21.18.21.18a9.91,9.91,0,0,0,1.21,1.06,20.53,20.53,0,0,1,1.88,1.39A14.11,14.11,0,0,1,198.53,68c.09.15.05.15-.11,0l-.2-.22a7.35,7.35,0,0,0-3.45-2,9.33,9.33,0,0,1-1.41-.3,1.93,1.93,0,0,0-.5-.14s.11.13.4.32a5.8,5.8,0,0,1,.51.37,3,3,0,0,0,.46.31,1.84,1.84,0,0,1,.31.23,4.57,4.57,0,0,1,.31.34c.09.12.19.25.32.4s.27.34.45.56.19.26.32.43l.38.47a3.22,3.22,0,0,1,.33.45,37.29,37.29,0,0,1,2.17,3.41A21.15,21.15,0,0,1,200.47,76l-.05,0q-.13-.22-.12-.06a15.07,15.07,0,0,0-4.67-6.43,24.75,24.75,0,0,0-3.85-2.47,2.29,2.29,0,0,1-1.14-1,5.31,5.31,0,0,1-.25-1.78,3.08,3.08,0,0,0-.23-1.11,4.84,4.84,0,0,1,0,1.46,5.68,5.68,0,0,1-.69,2,3.64,3.64,0,0,0-.48,2.22c0,.15,0,.52.09,1.1l0,.17a12.11,12.11,0,0,1,.07,1.8H189v-.17a10,10,0,0,0-1.79-4.46,2.15,2.15,0,0,1-.47-1.81c0-.38.16-.89.32-1.55a1.35,1.35,0,0,0,0-.47A4.1,4.1,0,0,1,185.72,66a4.17,4.17,0,0,1-.92.51,2.72,2.72,0,0,0-.93.56A4.73,4.73,0,0,0,182,70.09a4.9,4.9,0,0,0-.13,1.35c0,.11,0,.25,0,.41a1.61,1.61,0,0,0,0,.29,14,14,0,0,1,.08-4.41,6.16,6.16,0,0,1,.89-2.24,16,16,0,0,0,1.2-2.84c.07-.19.1-.29.16-.48l-.11.24a5.36,5.36,0,0,1-1.34,2.51,1.65,1.65,0,0,1-.39.29l-.42.19a3.65,3.65,0,0,0-.43.23,2.33,2.33,0,0,0-.38.31,9.83,9.83,0,0,0-1.78,2.82s0,0,.05-.22a33.26,33.26,0,0,1,1.78-4.72,11.21,11.21,0,0,0,.4-1.09,7.46,7.46,0,0,0,.2-1.23c.05-.52.09-.92.13-1.16s.11-.44.21-.86.17-.75.21-1a2.89,2.89,0,0,0,.07-.66q-.06.21-.21.66c-.1.31-.19.57-.27.79a5,5,0,0,1-1.68,2.12,4.77,4.77,0,0,0-1.53,1.74,14.12,14.12,0,0,0-1,3,6.81,6.81,0,0,1-.09-1.53c0-1.59-.16-2.78-.64-3.31a2.79,2.79,0,0,1-.75-1.35.64.64,0,0,1-.08-.35c0-.19-.05-.37-.08-.52a1.59,1.59,0,0,1-.06-.29h0l-.06.13a13.55,13.55,0,0,1-.6,2.39,3.62,3.62,0,0,0,0,2.49c.05.19.13.47.25.83s.2.64.25.83v0q.15.45.12.45s-.08-.07-.16-.22a2,2,0,0,0-.14-.29c-.43-.71-.75-1.23-.95-1.54a10.1,10.1,0,0,0-1-1.14,5.31,5.31,0,0,0-1.39-1.1A8.68,8.68,0,0,1,170.13,60a4.48,4.48,0,0,1-.95-1.74,5.22,5.22,0,0,0,.27,1l.25.55c.09.2.19.38.28.56s.18.36.26.52c.43,1,.72,1.69.85,2,.08.16.59,1.09,1.59,2.7l.06.17a15.8,15.8,0,0,1,1.47,2.6s-.17-.13-.38-.39-.44-.54-.67-.85-.38-.49-.42-.53a12.32,12.32,0,0,0-1.84-1.51,4.93,4.93,0,0,1-1.67-2.37c-.17-.39-.31-.77-.43-1.13,0,.12.14.51.31,1.13s.29,1.11.35,1.46c.17,1.14.3,1.81.35,2A8.11,8.11,0,0,1,169.93,67.24Zm6.78-18.95a2.2,2.2,0,0,1-.34-1.26,4.73,4.73,0,0,1,1,.4,9.28,9.28,0,0,0,.88.41,4.38,4.38,0,0,0,.43.14l.38.11.31.11a1.17,1.17,0,0,1,.35.19l.31.25a2.52,2.52,0,0,1,.35.37,1.08,1.08,0,0,1,.22.29c.06.09.1.1.06,0l-.17-.22a6,6,0,0,0-.43-.62,2.57,2.57,0,0,0-.37-.41l-.43-.36a4.46,4.46,0,0,0-.48-.37A3.43,3.43,0,0,1,178,46a4.2,4.2,0,0,0-.51-1.14,1.67,1.67,0,0,1-.28-1.24,10.3,10.3,0,0,0-.27-2.46,24.24,24.24,0,0,1-.33-4.47c0-.73-.07-.64-.23.26a7.25,7.25,0,0,1-.12.76c-.07,1.28-.11,1.91-.18,3.14,0,.7-.06,1.81-.08,3.25a18.74,18.74,0,0,1-1,6.27,5.28,5.28,0,0,1-.05-.93,4.78,4.78,0,0,0-.05-1,16.73,16.73,0,0,0-.94-3.75c0,.05,0,.47.1,1.22a10.84,10.84,0,0,1-.2,3.71,26.66,26.66,0,0,1-.84,2.85,9.56,9.56,0,0,0-.67,2.28c0,.18,0,.46-.07.82s-.07.6-.07.74a5.42,5.42,0,0,0,.3-.88,4.79,4.79,0,0,1,1.59-2.2,4.85,4.85,0,0,0,1.4-1.4,3.33,3.33,0,0,0,.25-1.21c0-.37.17-.46.4-.22a2.2,2.2,0,0,1,.4.5,7.06,7.06,0,0,1,.4.82,7,7,0,0,0,.34.73,1.53,1.53,0,0,0,.42.56,3.12,3.12,0,0,0,.75.42l.66.27a4.56,4.56,0,0,1,1.55,1.57c.11.23.15.21.11-.06a11.08,11.08,0,0,0-1.42-3c-.57-.94-1.31-2-2.22-3.22C177,48.78,176.86,48.51,176.71,48.29Z"/><path d="M216.44,25.56a22.18,22.18,0,0,0,1.45-5.07,35.9,35.9,0,0,0,.66-6.12c0-1.11-.11-3.38-.34-7a84.89,84.89,0,0,1,.8,9.13c0,.08-.08,2.24-.23,6.12-.07,1.84-.09,3.66-.05,5.47a18.31,18.31,0,0,1-.5,5c-.07.36,0,.27.23-.27a36.32,36.32,0,0,0,1.42-3.62c.14-.5.36-1.33.62-2.5.16-.52.31-1,.46-1.47a58.84,58.84,0,0,0-.27,6.15c0,.61.05,1.66,0,3.06s0,2.38,0,2.93a10.45,10.45,0,0,1-.15,2.85,9.73,9.73,0,0,1-1.06,2.43l.06.08.11-.16c.38-.41.77-.87,1.19-1.34a5,5,0,0,0,.78-2.84c0-.27,0-1,0-2.29a27.74,27.74,0,0,1,.52,6.26,11.56,11.56,0,0,1-.39,1.57,29.11,29.11,0,0,1-1.45,3.25c-.83,1.65-1.6,2.53-2.27,2.55a2.76,2.76,0,0,1-1.39-.59c.9.78,1.68,1.11,2.26,1s1.1-.77,1.93-1.94c.15-.2.36-.49.62-.89a15.68,15.68,0,0,1-1.17,2.34,8.38,8.38,0,0,1-1.47,2,3.84,3.84,0,0,1-.79.66,4.93,4.93,0,0,1-1,.42l-.83.24-1,.2a6.26,6.26,0,0,1-.95.13,2.38,2.38,0,0,1-2.55-1c-.12-.15-.27-.36-.47-.64a5.19,5.19,0,0,0,.68,1.37,11.79,11.79,0,0,0,.92,1.35,2.43,2.43,0,0,0,2.2.49,1.47,1.47,0,0,0,.46-.07.18.18,0,0,1,.17.07,4.73,4.73,0,0,1-3.28.73l-1.19-.37a13.45,13.45,0,0,1-1.89-.79A5,5,0,0,1,208,53.23a11.69,11.69,0,0,1-1.26-1.83v.07c0,.14.12.39.24.74s.2.6.23.74a11.35,11.35,0,0,1,.31,1.69,5.81,5.81,0,0,0,.67,2.13l.11.13a7.08,7.08,0,0,0,1.3,1.45c-.35-.17-.66-.35-.94-.52a6.26,6.26,0,0,1-.76-.6c-.23-.22-.43-.41-.58-.57s-.38-.4-.68-.74l-.67-.77-.35-.41c-.2-.23-.32-.37-.38-.42a3.11,3.11,0,0,1-.38-.38,4.3,4.3,0,0,0-.44-.41l-.4-.31a4.56,4.56,0,0,0-.44-.32,1.54,1.54,0,0,0-.43-.17c-.18,0-.36-.12-.5-.15s-.15.07.12.21a3.5,3.5,0,0,1,1.75,2.42c0,.09,0,.4.1.91a5.19,5.19,0,0,0,.33,1.37,13.79,13.79,0,0,0,1,1.71c.91,1.38,1.57,2.33,2,2.93l.06.19c-.08,0-.26-.13-.53-.37a16.4,16.4,0,0,0-2.37-1.67,6.77,6.77,0,0,1-1.52-1.15,4.1,4.1,0,0,0,.53.84,34.47,34.47,0,0,1,2.29,4.25,1.2,1.2,0,0,0,.14.41c.48,1,.59,1.55.5,1.52a1.42,1.42,0,0,1-.22-.26l-.29-.38c-.08-.12-.18-.24-.28-.38a3.22,3.22,0,0,0-.22-.26c-.92-1.13-1.43-1.76-1.55-1.84a2.71,2.71,0,0,0,.13.33,3.88,3.88,0,0,1,.23.56c.07.2.14.34.17.42s.2.68.46,1.45a12.18,12.18,0,0,0,.73,1.78,1.86,1.86,0,0,1,.14.31,2.27,2.27,0,0,0,.15.34,3.57,3.57,0,0,0,.17.34l.17.37a26.83,26.83,0,0,1,1.34,3.8c0,.14,0,.33,0,.55-.16-.56-.32-1.06-.49-1.5a11.73,11.73,0,0,0-.66-1.42,12.82,12.82,0,0,0-.9-1.43,6,6,0,0,0-1.08-1.16,1.63,1.63,0,0,0-1.44-.32q-.18,0-.21-.06a.48.48,0,0,1,0-.29c.1-.72.16-1.1.15-1.14s-.08-.44-.24-1.22a2.79,2.79,0,0,0-.14-.35,4.69,4.69,0,0,1,0,.7,5,5,0,0,1-.57,1.47,3.59,3.59,0,0,0-.34,2.23,7.61,7.61,0,0,0,.29,1c.12.39.24.77.35,1.14a8.72,8.72,0,0,1,.25,1.05,3.63,3.63,0,0,1,0,.42,1,1,0,0,1-.07-.19l-.15-.45a11.57,11.57,0,0,0-3-4.7,1.4,1.4,0,0,0-1.1-.29,1.22,1.22,0,0,0-.79.67l-.05.12a.57.57,0,0,0-.11.11c0,.07-.06,0-.07-.11a.51.51,0,0,1,0-.17,2.64,2.64,0,0,1,.25-.94,9.17,9.17,0,0,1,.61-1,6.54,6.54,0,0,0,.53-.89,3.9,3.9,0,0,1,.2-.53c-.15.16-.36.4-.63.73s-.44.53-.52.61a16.86,16.86,0,0,0-1.27,1.82,5.7,5.7,0,0,0-.71,2.12,19,19,0,0,0-.25,2.91,16.89,16.89,0,0,0,.65,4.59c0,.29,0,.37-.06.22s-.28-.54-.43-.9a10.48,10.48,0,0,1-.52-1.83c-.13-.62-.27-1.36-.41-2.22s-.24-1.48-.31-1.84c-.14-.84-.31-2-.42-3.35a5.1,5.1,0,0,1,1-3.46l.66-.83c-.18.16-.52.48-1,.95l-1.18.93a2.13,2.13,0,0,1-.22.21,2,2,0,0,0-.22.2,1.28,1.28,0,0,0-.19.23.89.89,0,0,0-.13.23,1.8,1.8,0,0,1-.11.2,1.18,1.18,0,0,0-.1.26.76.76,0,0,1-.1.25,1.42,1.42,0,0,0-.1.26,2.34,2.34,0,0,1-.09.28c-.07.19-.13.36-.2.51a10.71,10.71,0,0,1,.22-2.51A16.39,16.39,0,0,1,193.9,62a11.71,11.71,0,0,1,1.94-2.87c.23-.21.33-.32.29-.32l-.35.19a11.14,11.14,0,0,1-2.2,1,10.77,10.77,0,0,1-1.42.46.17.17,0,0,1,0-.12.4.4,0,0,1,.09-.22l.17-.28.2-.36c.08-.13.16-.26.23-.39a2.42,2.42,0,0,1,.27-.36,2.64,2.64,0,0,0,.23-.29c.05-.09.14-.22.26-.4a3.26,3.26,0,0,0,.63-1.66,3.65,3.65,0,0,0-.23-1c-.16-.45-.33-.95-.52-1.5s-.33-.95-.41-1.19a16.72,16.72,0,0,1-.46-2,15.13,15.13,0,0,1-.23-2A16.36,16.36,0,0,0,194,53c.15.19.33.39.52.59s.41.43.64.66.42.41.58.55a.47.47,0,0,0,.11.1l.15.1a.19.19,0,0,1,.08.14,3.71,3.71,0,0,0-.37-.58c-.22-.3-.38-.52-.49-.65a4.66,4.66,0,0,1-.41-1,4.73,4.73,0,0,1-.09-1.3q0-.86,0-1.08a10.8,10.8,0,0,0-.81-3.37c-.38-.94-.64-1.61-.75-2a35.89,35.89,0,0,1-1-4.91,5.23,5.23,0,0,1,.46,1c.19.51.35.89.46,1.16a5.36,5.36,0,0,0,.52.87,3.06,3.06,0,0,0,.69.7l1.38.93.63.54s0-.1-.06-.23-.2-.3-.37-.58l-.32-.54c0-.08-.11-.22-.2-.43s-.17-.39-.23-.55a4.31,4.31,0,0,1-.17-.59c-.06-.24-.08-.56-.15-.84s-.14-.52-.2-.93-.11-.77-.17-1.1-.13-.66-.2-1c-1.08-5.37-1.61-8.78-1.61-8.9,0-.32-.09-.69-.14-1.11s-.12-.81-.17-1.17-.11-.7-.15-1c.61,2.9,1.09,4.83,1.43,5.95a8,8,0,0,0,.72,1.79c.29.52.62,1.08,1,1.68s.69,1.06.92,1.46c-.08-.17-.19-.4-.34-.68l-.06-.18a1.17,1.17,0,0,1-.29-.47,3.43,3.43,0,0,0-.23-.49,4,4,0,0,1-.17-.41c-.08-.21-.12-.34-.14-.4l-.12-.37a3.82,3.82,0,0,1-.11-.5q0-.23-.06-.6c0-.24,0-.49-.09-.74-.19-2.16-.38-3.91-.57-5.16-.09-.66-.14-1-.23-1.68a75.67,75.67,0,0,1-.66-8.51A75.84,75.84,0,0,1,193.84,8a13.49,13.49,0,0,1,.35-2,8.59,8.59,0,0,1-.06,1.44,51.08,51.08,0,0,0-.26,7.55,24.41,24.41,0,0,0,1.06,6.73c.72,2.21,1.6,3.52,2.52,4h.17l.77.46a2.14,2.14,0,0,1,.57.59,4.45,4.45,0,0,1,.55,1.23,4.21,4.21,0,0,1,.26.73,5.3,5.3,0,0,1,.14.63c0-.64-.25-1.92-.63-3.93-.12-.6-.22-1.46-.32-2.59s-.18-2-.26-2.45c0-.21-.08-.53-.14-.95s-.1-.72-.14-.86l-.06-.22a.41.41,0,0,1,.06-.27s.07,0,.11.17a3.43,3.43,0,0,1,.2.54c.1.28.2.59.32.9a3.08,3.08,0,0,1,.17.59c1.07,2.9,2.19,4.63,3.38,5.37a.92.92,0,0,1,.37.15l.34.2.29.21a1.49,1.49,0,0,1,.28.25l.23.25a1.13,1.13,0,0,1,.23.34c.06.14.14.28.23.45a3.39,3.39,0,0,1,.26.54c.08.19.12.29.14.29s0-.14,0-.39a13.44,13.44,0,0,0-.29-1.72c-.15-.76-.23-1.37-.28-1.76,0-.19-.07-.42-.09-.66s0-.44,0-.61,0-.36,0-.57-.06-.42-.08-.62c-.06-.39-.14-1.1-.29-2.1s-.27-1.74-.34-2.25V17a.44.44,0,0,0,.05.22c0,.29.08.54.12.76.76,3.18,1.52,5.11,2.29,6a5,5,0,0,1,.46.56c.11.17.2.3.25.4a4.9,4.9,0,0,1,.26.61,4.47,4.47,0,0,0,.35.75c.12.2.23.29.25.25a3.8,3.8,0,0,0,.09-.64,8.29,8.29,0,0,1,.31-1.7c.13-.41.32-.86.54-1.37s.42-1,.58-1.39a35.74,35.74,0,0,0,1-3.9,11.75,11.75,0,0,1-.06,1.71c0,.15-.05.62-.14,1.43s-.15,1.35-.17,1.66,0,.75,0,1.33a7.56,7.56,0,0,0,.2,1.46,6.87,6.87,0,0,1,.17,1.4c0,.19,0,.59-.11,1.17a10.34,10.34,0,0,0-.11,1.35l0-.19a2.92,2.92,0,0,0,.2-.52c.1-.29.16-.5.2-.63A11.77,11.77,0,0,1,212,25.12a10.21,10.21,0,0,0,1.88-4.1,10,10,0,0,0,.23-1.25l0-.11c.08-.35.16-.52.23-.52,0,.57,0,1.45,0,2.62s0,1.88,0,2.15-.08,1.63-.11,3.47a13.55,13.55,0,0,0,.06,1.84c.07,0,.19-.22.34-.66a7.11,7.11,0,0,1,.37-.87,3.71,3.71,0,0,1,.4-.62c.13-.16.28-.37.46-.63A6.56,6.56,0,0,0,216.44,25.56Zm-12,18.4c-.26,1.56-.9,2.2-1.94,2h-.23a2.4,2.4,0,0,0,.23.23A2.57,2.57,0,0,0,205,46a3.8,3.8,0,0,0,1.11-.84,1.5,1.5,0,0,0,.37-.8,14.43,14.43,0,0,0,.05-1.76,5.86,5.86,0,0,1,.16-2c0,.32.08.58.12.76a2.47,2.47,0,0,1,.06.36c.16.54.41,1.26.76,2.14a7.93,7.93,0,0,1,.41,1.7c0,.25.2.3.46.15a10.68,10.68,0,0,1,1.32-.6,2.22,2.22,0,0,0,1.42-1.38,10.28,10.28,0,0,0,.39-2.93v-.41a4.56,4.56,0,0,0-.34.77,4,4,0,0,1-.45.91c-.42.42-.78.45-1.09.07-.08-.1-.06-.26.06-.47s.17-.23.39-.52a4.74,4.74,0,0,0,.57-.93,2.41,2.41,0,0,0-.47-2.9,4.73,4.73,0,0,0-.52-.43c-.46-.29-.87-.54-1.2-.78s-.66-.43-.69-.4,0,.13.11.31a5,5,0,0,1,1,2.17,8.4,8.4,0,0,1-.07,2.58c-.11.82-.15,1.1-.22.73A11.38,11.38,0,0,0,208,38.6a4.25,4.25,0,0,0-2.35-2.21,3.79,3.79,0,0,0-2.58-.36,4.88,4.88,0,0,0-1.09.51h.17c1.45-.17,2.18.51,2.18,2,0,0,0,.18,0,.37s0,.35,0,.46a2.62,2.62,0,0,0,0,.37,1.12,1.12,0,0,0,.09.32.77.77,0,0,0,.14.21.28.28,0,0,0,.26,0l.4-.12s.12-.09.23-.16a.52.52,0,0,1,.4-.12s0,.26-.11.69a4.27,4.27,0,0,1-.54.92,3.68,3.68,0,0,0-.6,1.47C204.54,43.15,204.49,43.49,204.41,44Z"/><path d="M244.15,48.66q-.24-.15-1.47-1.11a2.79,2.79,0,0,1-.41-.38c-.2-.19-.38-.36-.53-.48a.86.86,0,0,0-.35-.2c-.23-.05-.39.1-.48.44a3.55,3.55,0,0,0-.06,1.25q.08.72.15,1.29c.05.39,0,.74.08.86a2,2,0,0,1,.13.28,13.91,13.91,0,0,0,.69,2l-.43-.83a22.51,22.51,0,0,1-1.95-6.63c0-.2-.38-1.49-1-4a22.06,22.06,0,0,1-.39-3.18c0-.43,0-.42.06.08a1.32,1.32,0,0,0,.06.42c.41,2.32,1.13,3.83,2.14,4.6a8.46,8.46,0,0,0,1.92,1.2,6.31,6.31,0,0,1-2.42-3.81c-.31-1.37-.53-2.49-.73-3.22a4.71,4.71,0,0,1-.15-.59q-.09-.44-.15-.69a31.47,31.47,0,0,1-.34-7.79c0-.5,0-.9,0-1.14,0-.75.06-.74.06.09,0,.26,0,.69-.05,1.24s0,.69,0,.75c.1,3.88.58,6.11,1.43,7.05a5.52,5.52,0,0,0,.89.74,4,4,0,0,1,1,1,8.91,8.91,0,0,1,.64,1.09l.18.24c-.16-.49-.46-1.21-.89-2.17a4.8,4.8,0,0,1-.47-1.38c-.08-.46-.13-.82-.15-1.09a12.26,12.26,0,0,1,0-1.32c0-.62,0-1.14,0-1.57s0-1.33-.07-2.39-.07-2-.07-2.84,0-1.69.1-2.53c0-.52.1-1.13.17-1.8,0-.39.15-.22.06.11a1.21,1.21,0,0,0-.06.4v.3c-.1,3.53.35,6.19,1.35,8.17a9.91,9.91,0,0,1,1.06,3.25,5.74,5.74,0,0,0-.07-1.51c-.06-.34-.17-.76-.27-1.21s-.16-.87-.2-1.24a11.68,11.68,0,0,1-.07-1.48c.08-1.79.12-2.71.21-4.59v-.4c.11-2.29.2-4,.28-5.05s.23-2.33.47-3.91.62-3.29,1.11-5.16c.19-.74.21-.67.06.24-.08.45-.19,1.08-.34,1.89V12a36.85,36.85,0,0,0,0,12.85,7.1,7.1,0,0,0,1.5,3.22,12.77,12.77,0,0,1,1.22,1.73c.07.18.12.25.14.19a1.47,1.47,0,0,0,0-.37,8.63,8.63,0,0,1-.18-1,9.29,9.29,0,0,1-.12-1.36c0-.32,0-.7,0-1.14s0-.9,0-1.35,0-.85,0-1.17c0-.92,0-1.46,0-1.6,0-1.33.16-2.92.39-4.81,0,1.41.07,2.39.09,3a21.12,21.12,0,0,0,.26,2.34,7.35,7.35,0,0,0,.81,2.45,8,8,0,0,0,.52.94,10.29,10.29,0,0,1,.58,1,12.32,12.32,0,0,1,.47,1.15,1.75,1.75,0,0,0,.2.48,1,1,0,0,0,.08-.46c0-.29,0-.8,0-1.46s0-1.16,0-1.49c0-1,0-1.85,0-2.44,0-1.65,0-3.19.1-4.58h0a.42.42,0,0,1,.06.21c0,.28.09.71.15,1.3s.11,1,.15,1.38a14.53,14.53,0,0,0,.9,3.08c.45,1.1.75,1.91.91,2.42a5.4,5.4,0,0,1,.19,2.36,1.24,1.24,0,0,0-.06.37,4.65,4.65,0,0,0,.48-1.93,6.62,6.62,0,0,0-.06-1.39c-.06-.29-.25-1-.56-2a1.68,1.68,0,0,1-.09-.55s.11.1.26.36c.7.83,1.19,1.08,1.46.77a5.25,5.25,0,0,0,.58-2.47,40.44,40.44,0,0,0,0-5.3,11.56,11.56,0,0,1,.36,2.44c.13,1.58.3,3.21.48,4.71a10.38,10.38,0,0,1-.1,4.08,1.84,1.84,0,0,0-.08.6s.12-.07.32-.31a10.32,10.32,0,0,0,1.28-2.27,10.8,10.8,0,0,0,.82-2.69,26.42,26.42,0,0,0,0-5.61l-.06-.11c0-.64.05-.28.27,1.07s.35,2.07.39,2.21c.08.63.19,1.72.3,3.19.09,1.27.52,1.66,1.31,1.17.2-.12.24-.08.12.11a1.11,1.11,0,0,1-.06.3,16.28,16.28,0,0,1-.8,1.43,9.08,9.08,0,0,0-.91,2,1.71,1.71,0,0,0-.05.47c-.08.18-.11.29-.09.32s.09,0,.21-.13A13.8,13.8,0,0,0,260.82,27a16.77,16.77,0,0,0,.95-4.8c.12-1.24.17-2.7.18-4.33a62.53,62.53,0,0,0-.39-7.85q-.12-.76-.06-.66a32.14,32.14,0,0,1,.5,3.3c.45,3.36.8,8.15,1.1,13.69a11.88,11.88,0,0,0,.55,3.84c.36.78.82.64,1.38-.47,0,0,.16-.24.36-.74a7.29,7.29,0,0,1-1.25,3.56,9.46,9.46,0,0,0-1.06,2.17c.08,0,.34-.19.77-.61s1-.93,1.23-1.21a3.76,3.76,0,0,0,.68-1.31,9.47,9.47,0,0,0,.42-2.35c.06-1.07,0-2.44-.06-4a23.5,23.5,0,0,1,.26,8.7c-.19.92-.23,1.35-.11,1.36s.16,0,.37-.13A5.28,5.28,0,0,0,268,31.74a24.23,24.23,0,0,0,.05-3.89,27,27,0,0,1,.15,7c0,.22-.11.54-.2,1a5.33,5.33,0,0,0-.17.88,5.88,5.88,0,0,0,0,.78,3.44,3.44,0,0,0,.15,1,22.23,22.23,0,0,1,.57,2.76,2.56,2.56,0,0,1-.11.76,2.55,2.55,0,0,1-.32-.8,6.15,6.15,0,0,0-1.1-2.34c-.16-.12-.09.19.21.94.09.32.21.76.34,1.31l.27,1.07a31.81,31.81,0,0,1,.81,4.54q.14,1.17.21,2.31V49a8.28,8.28,0,0,1-.42-1.56c-.2-.88-.32-1.38-.36-1.48a14,14,0,0,0-2-4l-1.19-2c-.13-.27-.19-.37-.19-.29a3.29,3.29,0,0,0,.07.44,18.17,18.17,0,0,1,.52,4.59l-.12-.39a2.65,2.65,0,0,0-.1-.39,1.59,1.59,0,0,1-.1-.43,1,1,0,0,0-.1-.36l-.13-.35a3.68,3.68,0,0,0-.12-.36,1.91,1.91,0,0,0-.19-.36,2.82,2.82,0,0,0-.25-.29l-.28-.33a1.91,1.91,0,0,1-.43-.46,2.78,2.78,0,0,1-.25-.45c0-.1-.13-.32-.25-.64a3.21,3.21,0,0,1-.2-.56c-.17-.38-.24-.24-.29.29,0,.2-.05.39-.05.54a3.36,3.36,0,0,0,.29.84,3.69,3.69,0,0,0,.47.73c.16.2.25.32.25.37s-.06.05-.18,0l-.58-.31a4.68,4.68,0,0,0-.63-.32,5.66,5.66,0,0,0-3.39-.12,7.93,7.93,0,0,0-1.88.61,2.11,2.11,0,0,1-.38.1.69.69,0,0,1-.44-.1l-.36-.17a1.85,1.85,0,0,1-.38-.24l-.39-.29c-.47-.38-.92-.65-1.18-.83a6.15,6.15,0,0,0-1.58-.75c-.27-.06-.26-.06.05,0h.18c.73.18,1.47.34,2.1.54a2.71,2.71,0,0,0,3-1,10.71,10.71,0,0,0,1.3-2.31c0-.15,0-.26,0-.31a10.25,10.25,0,0,1-.8,1.22A2.19,2.19,0,0,1,255.53,39c-.19,0-.2-.09,0-.24a1.48,1.48,0,0,0,.62-.86,11.3,11.3,0,0,0-.27-1.79,4.91,4.91,0,0,0-.31-1.34c0-.06-.11,0-.23.23s-.2.4-.25.53-.12.26-.17.36a1,1,0,0,1-.23.28l-.2.15-.32.19a2.51,2.51,0,0,0-.43.31,6.59,6.59,0,0,0-1.2,1l-.91.91c-.45.37-.59.12-.41-.75a9.6,9.6,0,0,1,.27-1V36.9a4.35,4.35,0,0,1,1.64-2.19c.08,0,.14-.05.17-.16a6.71,6.71,0,0,0-4.43,4.09,4.58,4.58,0,0,0,.29,3.13s0-.1,0-.32l-.06-.16a5.47,5.47,0,0,0,0-.59,1.77,1.77,0,0,1,0-.52c0-.16.06-.29.08-.4a.89.89,0,0,1,.17-.36,1.26,1.26,0,0,0,.19-.36,1.77,1.77,0,0,1,.23-.4l.28-.4c.22-.32.35-.46.39-.4a2.9,2.9,0,0,1,.07.82,5,5,0,0,1,0,.73,1.79,1.79,0,0,1-.16.56,3.11,3.11,0,0,0-.19.64,4.41,4.41,0,0,0,.35,2.9,2.07,2.07,0,0,0,0-.66,3,3,0,0,1,0-.73,4.36,4.36,0,0,1,.43-1.89c.07-.22.15-.16.23.16a6.94,6.94,0,0,0,.42,1,1.3,1.3,0,0,0,.42.47,2.81,2.81,0,0,0,.76.33,14.72,14.72,0,0,1,2.35.92,14.28,14.28,0,0,0,1.78.83,6.16,6.16,0,0,1,2.89,2.49,2.62,2.62,0,0,1,.19.27,3,3,0,0,0,.18.27,10.8,10.8,0,0,0-1.6-3,6.44,6.44,0,0,0-1.74-1.23,3.22,3.22,0,0,1,1.71,0,6.13,6.13,0,0,1,1.67.59h.06a16.26,16.26,0,0,1,2.62,2.46,4.49,4.49,0,0,1,1,1.85,13.24,13.24,0,0,1,.23,2.49,10.84,10.84,0,0,0,0-3.79,7.82,7.82,0,0,0-2.77-4.1l.78.44A13,13,0,0,1,265,46a21.14,21.14,0,0,1,2,4.09,12,12,0,0,1,1,4,4.52,4.52,0,0,1-.45,1.6,1.2,1.2,0,0,0-.14.33l.07.07.11,0a3.05,3.05,0,0,0,1.45-1.33,9.7,9.7,0,0,0,.69-2.5,18.06,18.06,0,0,0,.28-3.1c0,.56,0,2-.11,4.07a22.63,22.63,0,0,1-.65,5,15,15,0,0,1-.86,2.19c-.23.53-.09.89.41,1.08.2.09.22.17,0,.25a2.36,2.36,0,0,1-1.59.07A4.67,4.67,0,0,1,265.5,61a3.05,3.05,0,0,1-.59-.57,3.75,3.75,0,0,0,1,1.15,13,13,0,0,0,1.38,1.06c.84.52,1.61.16,2.29-.77.4-.54.64-.89.72-1-.7,1.92-1.36,2.67-2,2.74a1.12,1.12,0,0,1-.45,0,3.08,3.08,0,0,1-.46-.18,2.23,2.23,0,0,1-.41-.26,2.07,2.07,0,0,0-.41-.29l-.44-.28c.09.12.32.42.67.91a4.12,4.12,0,0,1,.71,1.35,2.92,2.92,0,0,0,.16.56,1.35,1.35,0,0,0,.23.34,2.43,2.43,0,0,0,.47.39,3.09,3.09,0,0,0,.83.35l.63.19c.09.07.07.14,0,.21a1.66,1.66,0,0,1-.46.2,2.93,2.93,0,0,1-2.66.09,5.19,5.19,0,0,1-1-1.18c-.09-.15-.15-.18-.18-.1s0,.19,0,.44l.06.76,0,.53c0,.18-.06.48-.09.89s-.05.77-.07,1.05,0,.33.05.57,0,.41,0,.51c.09,2.61.14,4.39.1,5.37-.09,1.7-.15,2.44-.17,2.5,0,.49-.1.2-.16-1,0-.82-.06-1.35-.08-1.52a20.68,20.68,0,0,0-1.78-8.13c-.37-.73-.58-1.17-.64-1.35a5.62,5.62,0,0,1,0-1.37c0-.17,0-.26-.05-.26s-.07.06-.14.18h-.06a3.68,3.68,0,0,0-.82,2.25,21.82,21.82,0,0,0,0,2.45c.07,1.06.12,1.8.11,2.18,0,.2,0,.44,0,.7s0,.49,0,.7,0,.44,0,.69,0,.47,0,.67a19.67,19.67,0,0,0-1-5.09,8.27,8.27,0,0,0-.69-1.19,1.81,1.81,0,0,0-.75-.56c-.33-.14-.67,0-1,.37a.13.13,0,0,0-.11.05c-.11.12-.18.17-.22.17s0-.13,0-.37a13,13,0,0,1,1.12-2.79.22.22,0,0,0,.05-.19,11.12,11.12,0,0,0-1.71,2.13,4.72,4.72,0,0,0-.48,2.42,9.92,9.92,0,0,0,.08,1.47,14.23,14.23,0,0,1,0,2.59,9.49,9.49,0,0,1-.55,2.22,8.07,8.07,0,0,0,.47-2.69,10.46,10.46,0,0,0-.69-3.1,10,10,0,0,0-.45-1,2.47,2.47,0,0,0-.54-.69,1,1,0,0,0-.76-.27,2.07,2.07,0,0,0-1,.36.7.7,0,0,1-.28.17,11.75,11.75,0,0,0,2.53-3.3,7.56,7.56,0,0,1-1.54,1.24,2.63,2.63,0,0,0-.48.24l-.42.23-.34.21a4.4,4.4,0,0,0-.35.27l-.33.32a2.41,2.41,0,0,0-.33.5,5.68,5.68,0,0,0-.66,4.33c-.12,0-.22-.21-.29-.51s-.17-.84-.23-1.3-.15-1-.22-1.51-.11-1-.16-1.3a2.51,2.51,0,0,1,0-.9,2.68,2.68,0,0,1,.18-.58,5.36,5.36,0,0,1,.39-.62,4.31,4.31,0,0,0,.41-.71,1.35,1.35,0,0,1,.23-.41,2.65,2.65,0,0,0-.41.38,1.54,1.54,0,0,1-.36.33,2.39,2.39,0,0,1-.71.53l-1,.49c-.38.18-.66.3-.85.38A2.86,2.86,0,0,0,247,68.85a7.48,7.48,0,0,0-.12,2.91q0,.28-.18,0l-.07-.11q0-.12-.09-.57c0-.31-.08-.48-.08-.51a8.57,8.57,0,0,1,0-4.1,5.92,5.92,0,0,1,.56-1.06.21.21,0,0,0,0-.18l-.76.33a2.32,2.32,0,0,0-.75.44,4.53,4.53,0,0,0-1.49,3.13,7.92,7.92,0,0,0-.07,1.14c0,.42,0,.78,0,1.08a11.57,11.57,0,0,0,.12,1.19l.15,1.07c0,.23.09.62.19,1.18s.16.93.18,1.07,0,.24-.08-.17-.31-1-.56-1.8a38.69,38.69,0,0,1-1.11-7.31,1.81,1.81,0,0,1,.24-1.15,1.65,1.65,0,0,1,.59-.59c.21-.1.58-.25,1.11-.44a1.64,1.64,0,0,0-.59-.07,10.41,10.41,0,0,1-3.48-.54,4.23,4.23,0,0,1-.83-.31,2.59,2.59,0,0,1-1.1-.85,1.42,1.42,0,0,1,.46-.06c.19,0,.42,0,.67,0l.55,0c.12,0,.59-.06,1.42-.18a14.46,14.46,0,0,1,2-.18h-.06a.17.17,0,0,0-.12-.06,7,7,0,0,1-.74-.06l-.73-.1a3.39,3.39,0,0,1-.59-.15,2.37,2.37,0,0,1-.63-.34c-.18-.15-.37-.32-.58-.53l-1-1.19-.07-.13a17.18,17.18,0,0,1-2.56-6.19c.82,2.65,1.81,4.12,3,4.6a2.59,2.59,0,0,0,.62.26,2.94,2.94,0,0,1,.68.26,2.42,2.42,0,0,1,.42.19l.36.19a9.74,9.74,0,0,0-.91-.8,8,8,0,0,1-.94-.85,4,4,0,0,1-.71-1.15,11.28,11.28,0,0,1-1-5,11.88,11.88,0,0,1,.08-1.48c0-.19.1-.55.2-1.08a14,14,0,0,0,.57,4,3.59,3.59,0,0,0,2,2.23,4.84,4.84,0,0,0,1.23.27c.23,0,.61.37,1.14.94.2.27.45.62.74,1.05.12.22.18.22.17,0,0,0,0-.13-.07-.26A2.69,2.69,0,0,0,244,56a9.13,9.13,0,0,0-.71-.87,4.45,4.45,0,0,1-.6-.8l-.07-.14.12.07a2.2,2.2,0,0,1,.3.2,1.44,1.44,0,0,1,.24.21,2.06,2.06,0,0,0,2.48.09.71.71,0,0,0,.31-.87,1.37,1.37,0,0,0-.19-.61,13.82,13.82,0,0,0-2-2.51c-.16-.14-.44-.43-.83-.86,1.68,1.3,3,2.28,4,3,1.43,1,2.36,1.69,2.8,2.05a8.78,8.78,0,0,1,1.95,2,4.24,4.24,0,0,1-.89-.53c-1.2-.75-2.28-.49-3.26.75a1.77,1.77,0,0,1-.22.32,3.83,3.83,0,0,1,2.46-.69,2.12,2.12,0,0,1,1.24.53c-.61.08-1,.26-1,.44s0,.48,0,.54a1.31,1.31,0,0,0,.26.54,2.11,2.11,0,0,1,.29.51c.18.37.32.58.42.62a1,1,0,0,0,.66-.12,1.29,1.29,0,0,0,.71-.8c.13-.37.21-.56.25-.56a.19.19,0,0,1,.12.07l.16.19c.06.09.14.18.22.29a1.74,1.74,0,0,1,.19.28,2.6,2.6,0,0,0,.26.38,2.28,2.28,0,0,0,2.86.76,3.28,3.28,0,0,0,1.67-1.09,4.51,4.51,0,0,0,.92-2.13c0-.17-.15-.16-.29,0a4,4,0,0,1-2.09,1.25,5.88,5.88,0,0,1-2.45-.12q.23,0,.69-.09a4.8,4.8,0,0,0,.69-.1,3.47,3.47,0,0,0,.55-.16,1.82,1.82,0,0,0,.56-.31,2.18,2.18,0,0,0,.46-.58,7.12,7.12,0,0,0,1.05-2.35,4.15,4.15,0,0,0,0-.81c-.07,0-.17.11-.28.32a6.09,6.09,0,0,1-1.44,1.5,3,3,0,0,1-1.14.66l.25-.28.3-.34a1,1,0,0,0,.19-.35,2.07,2.07,0,0,0,.12-.49,1.57,1.57,0,0,0-.11-.61,1.13,1.13,0,0,0-.4-.49l-.45-.33a7,7,0,0,0-1.1-.42A4.19,4.19,0,0,1,252,50.91c-.08-.24-.17-.54-.26-.92a2,2,0,0,0,.11.81c.11.4.3,1,.56,1.67s.44,1.24.53,1.6a17.12,17.12,0,0,1,.5,2,2.32,2.32,0,0,1,0,1c0-.08-.12-.28-.23-.58s-.19-.51-.23-.6A8.44,8.44,0,0,0,251.71,54a17.16,17.16,0,0,0-1.77-1.65,20.81,20.81,0,0,1-1.64-1.51,7.72,7.72,0,0,1-1.77-3.38.9.9,0,0,1-.12-.3c0-.15,0-.17,0-.07v.36c.09.4.25,1,.48,1.67s.37,1.14.42,1.29a6,6,0,0,0,.87,1.81.76.76,0,0,1,.12.28,20.62,20.62,0,0,1-1.61-1.68A15.2,15.2,0,0,0,244.15,48.66Z"/><path d="M292.49,27.6a67.91,67.91,0,0,1,.12-12.28c-.28,8,.64,13,2.92,14.72,1,.74,1.81.2,2.53-1.78.13-.33.22-.47.27-.43a2.2,2.2,0,0,1,.05.71c0,.34,0,.78-.05,1.32a8,8,0,0,0,0,1.05q0,.25.15.81a12,12,0,0,0,.31,1.17,15.93,15.93,0,0,1,.73,3.18c0,.23,0,.19,0-.11,0-.07,0-.22,0-.44l-.07-.12a32.93,32.93,0,0,0-.41-3.32,12.71,12.71,0,0,1-.06-4.39c.27-1.18.42-1.84.42-1.93a40.89,40.89,0,0,0,.55-7v-.4c.13.09.21.31.25.66v.54c0,.44.06,1,.07,1.79s0,1.47.07,2.14.06,1.36.09,2.07.09,1.37.16,2,.14,1.17.24,1.58a11.82,11.82,0,0,0,.46,1.45,10.31,10.31,0,0,1,.39,1.42,11,11,0,0,1,.17,1.85,18.37,18.37,0,0,1-.22,2.62c0,.08,0,.37-.07.86,0-.28.12-.7.23-1.28s.22-1.08.31-1.46c.23-1.39.58-3,1-4.88a56.63,56.63,0,0,0,1.63-15.15c-.05-1.89-.21-3.6-.39-5.07,0-.07-.05-.39-.14-.91-.17-1.13-.26-1.66-.45-2.66.05.2.15.6.29,1.23a71.84,71.84,0,0,1,1.64,15A96.49,96.49,0,0,1,305,36.46c-.09.6-.17,1.41-.24,2.36s-.16,1.72-.26,2.33a7,7,0,0,1-.52,1.68A9.84,9.84,0,0,1,302.53,45l1.09-1.15.83-.84a9.14,9.14,0,0,1,.85-.76,5.32,5.32,0,0,0,.83-.81,5.66,5.66,0,0,0,.74-1.46c.65-1.7.89-4.35.74-8.13a49,49,0,0,1-.06,6.66,18.21,18.21,0,0,1-1.11,4.59A32.82,32.82,0,0,0,305,47.4c-.09.47-.22,1.38-.37,2.73a12.68,12.68,0,0,1-.35,1.78c-.17.61-.35,1.26-.55,1.93s-.34,1.27-.44,1.78v.18l.07-.16.21-.58a4.49,4.49,0,0,1,.28-.66,4.07,4.07,0,0,1,.74-1c.27-.24.54-.48.83-.69a3.2,3.2,0,0,0,.77-.88,11,11,0,0,0,.94-4.72,14.8,14.8,0,0,1-.11,3.77,26.58,26.58,0,0,1-1.27,4c-.2.68-.59,2.25-1.13,4.57a12.4,12.4,0,0,1-1.07,2.84c-.52,1-.8,1.54-.88,1.72a7.74,7.74,0,0,0-.3.76.67.67,0,0,1,.12-.27l.18-.3.18-.3c.09-.13.15-.23.19-.3l.19-.31a1.37,1.37,0,0,1,.22-.3,1.44,1.44,0,0,1,.25-.22,1.61,1.61,0,0,1,.28-.18l.25-.1a.57.57,0,0,1,.32,0,1,1,0,0,0,1-.34,11.22,11.22,0,0,0,2.06-4.53.92.92,0,0,1,.07-.26c0-.18,0-.24,0-.18s0,.21,0,.45a43.33,43.33,0,0,1-1.31,4.88c-.67,2.16-1.1,3.48-1.28,4.18l-.18.82a4.66,4.66,0,0,0-.11.58,2.34,2.34,0,0,1-.14.5c-.06.16-.11.28-.14.35.07.29.09.42.05.43s.05.14.25.44l.38.56a21.54,21.54,0,0,1,1.19,3.51,96.25,96.25,0,0,1,2.24,15.33c-.83-7.65-1.88-12.39-3.15-15a11.13,11.13,0,0,0-1.42-2.44s0,.09.13.33a13,13,0,0,1,.73,2,11.12,11.12,0,0,1,.33,1.42c.05.3.11.92.17,1.93s.12,1.84.17,2.42c0,.4.07.81.09,1.21s.05.86.09,1.39a9.16,9.16,0,0,0,.13,1.12v.16c.12,1.39.28,3.53.51,6.44s.42,5.21.57,6.87.31,3.66.54,5.76.44,3.78.66,5.08a16,16,0,0,0,.29,2.13c0-.09-.09-.3-.19-.69-1.47-5.81-2.46-17.76-4.34-24.88-.37-1.3-.62-2.25-.77-2.9s-.29-1.51-.44-2.54a13.61,13.61,0,0,1-.17-2.92c0-.22.07-.6.11-1.07a2.41,2.41,0,0,0,0-.59,9.65,9.65,0,0,0-.26,1.37,18.13,18.13,0,0,0-.34,2.26c-.12,1.08-.24,1.94-.36,2.55a34,34,0,0,0-.69,6.75c0,.48,0,1.14,0,1.95s0,1.37,0,1.7,0,.78,0,1.33,0,1,0,1.33,0,.75-.08,1.19-.1.88-.16,1.33-.11.91-.16,1.4a46.17,46.17,0,0,1-.91,4.79,41.08,41.08,0,0,0,1.16-8.68,70.91,70.91,0,0,0-.61-8.75c-.43-3.44-1.06-5.59-1.82-6.62a8.23,8.23,0,0,1-1.18-2.27,6.81,6.81,0,0,1-.29-1.14c-.07-.38-.13-.71-.17-1a5.67,5.67,0,0,1-.06-1.08c0-.43,0-.72,0-.89s0-.5.06-1a7.13,7.13,0,0,0,0-.78c0,.23-.08.67-.16,1.38s-.14,1.32-.17,1.76a11.48,11.48,0,0,0,0,2.5,11.51,11.51,0,0,0,.89,2.32c.16.5.23.77.19.8a1.18,1.18,0,0,1-.49-.15,1.63,1.63,0,0,0-1.61-.07,3.79,3.79,0,0,0-1,2.09l-.12.2a29.67,29.67,0,0,0-.49,8.64,27.24,27.24,0,0,1-.37-4,89.49,89.49,0,0,1,.57-11.6c0-.52.13-1.85.27-3.58.06-.54.12-1,.18-1.36a3.25,3.25,0,0,1,.3-1c.14-.27.27-.49.37-.65a3.14,3.14,0,0,1,.48-.53,5.47,5.47,0,0,0,.54-.53,3.68,3.68,0,0,0,.3-.66,2.21,2.21,0,0,1-2.38,1.3,2.51,2.51,0,0,0-1.44.07A5.81,5.81,0,0,0,290.72,70,21.84,21.84,0,0,1,293,64.56a9.37,9.37,0,0,0,.91-3.8,5.67,5.67,0,0,1,.18-1,5.38,5.38,0,0,1,.25-.77c.08-.2.21-.46.38-.81s.3-.61.39-.82c.26-.71.49-1.42.67-2.12a5.43,5.43,0,0,1-2.12,2.8,3.07,3.07,0,0,1-1.59.15,2.21,2.21,0,0,0-1.33.11,1.56,1.56,0,0,0-.53.55,3.49,3.49,0,0,0-.33,1.06c-.07.46-.12.81-.16,1.06s-.07.65-.11,1.14a8.39,8.39,0,0,0-.05.87,4,4,0,0,0,0,.77,1.32,1.32,0,0,1-.29-.78c-.56-3.24-1.6-5.54-3.41-6l-.86-.17c-.37-.07-.65-.11-.8-.15A4.21,4.21,0,0,1,282,54.7a7.58,7.58,0,0,1-.86-1.78,1.76,1.76,0,0,0-.19-.38s.06.19.12.45a12.5,12.5,0,0,0,.44,1.47c.21.55.37,1,.5,1.39s.25.82.38,1.34a7.71,7.71,0,0,1,.22,1.57,7.8,7.8,0,0,0,.4,2.31,7.71,7.71,0,0,0,1.22,2c.26.3.69.89,1.29,1.49a13.51,13.51,0,0,1,3.29,5.71c-1.34-3.55-2.81-4.91-4.29-5.64-.13-.06-.28-.13-.47-.2l-.41-.16-.32-.16a3.2,3.2,0,0,0-.36-.19,3,3,0,0,1-.38-.25,3.81,3.81,0,0,1-.5-.45,10.23,10.23,0,0,1-1-1s0,.13.14.28c.63.85,1.1,1.43,1.38,1.89a5.27,5.27,0,0,1,.57,2c.16,1.37.38,2.89.63,4.29,0,.26.2,1,.44,2.34s.42,2.41.52,3.16a42.09,42.09,0,0,1,.13,7.41c0,.34,0,.5-.07.82,0-.14,0-.21,0-.36,0-.35,0-.53-.06-.89-.12-3.72-.67-7-1.78-9A1.77,1.77,0,0,0,281.3,73c-.16,0-.25,0-.28-.15a.49.49,0,0,1,.14-.38,6.48,6.48,0,0,0,.43-2.07,19,19,0,0,0-.2-2.28c0-.1,0-.15,0-.25s0-.4-.11-.82c0,.66,0,1.17,0,1.45a6.18,6.18,0,0,1-.19,1.16,3.1,3.1,0,0,1-.51,1.2l-.6.74a4.61,4.61,0,0,0-.7,1.07,9.12,9.12,0,0,0-.43,1.15A21.26,21.26,0,0,0,279,83.93c.14.58.26,1,.34,1.29l-.21-.68a46.69,46.69,0,0,1-1.05-6c-.07-.5-.15-1.31-.22-2.47s-.19-2.06-.28-2.7a7.27,7.27,0,0,1-.07-1.42c0-.5,0-.85,0-1.06s.06-.52.13-1,.13-.82.16-1.15a7.06,7.06,0,0,0-.06-2.09,3.51,3.51,0,0,1-1.37,3.39,6.48,6.48,0,0,0-2.19,2.33,17.93,17.93,0,0,0-1.45,8.84,12.73,12.73,0,0,0,.14,1.42c.08.6.15,1,.19,1.2a3.68,3.68,0,0,1-.3-1.06,6.92,6.92,0,0,0-.33-1.36c0-.16-.11-.68-.21-1.71a20.49,20.49,0,0,1-.13-2.1,93.36,93.36,0,0,1,.74-10.29c.08-.54.24-1.33.47-2.28a12.92,12.92,0,0,0,.38-2.06.32.32,0,0,1,.05-.16l-.12,0a.66.66,0,0,1-.08.31,1,1,0,0,1-.16.25,2.56,2.56,0,0,1-1.28,1.31,3.84,3.84,0,0,0-1.33,1,8.54,8.54,0,0,0-1.45,3.37,17.24,17.24,0,0,1,1.44-5c.52-1,.86-1.68,1-2.12a5.59,5.59,0,0,0,.36-1.19s-.27-.54-.77-1.55a7.56,7.56,0,0,1-.41-.8c-.18-.4-.3-.68-.37-.85l-.31-.75c-.13-.33-.23-.61-.3-.83a7.81,7.81,0,0,1-.21-.79c-.07-.31-.13-.62-.18-.94s-.07-.64-.08-1a5.62,5.62,0,0,1,0-.94c.26,3,1.12,4.7,2.51,5.41l.71.38c.1.06.27.16.49.31a2.52,2.52,0,0,1,.57.49c.15.17.31.39.49.63l.32.37c-.36-.61-.78-1.25-1.25-1.9a12.69,12.69,0,0,1-1.3-2.9,55.25,55.25,0,0,1-2.2-8.4c-.05-.26-.12-.86-.21-1.79A22.29,22.29,0,0,0,271,49.49a14.79,14.79,0,0,0,2.11,3,12.29,12.29,0,0,1,1.62,2.67c-.38-.88-.87-1.84-1.44-2.87a10,10,0,0,1-1-4.15,20.9,20.9,0,0,0-.3-2.4,15.67,15.67,0,0,0-.8-2.29,26.54,26.54,0,0,1-1.49-5.38c-.1-.56-.21-1.22-.34-2V35.8a7.69,7.69,0,0,1,.44,1.34,8.93,8.93,0,0,0,1.44,3.35,8.1,8.1,0,0,0,.57.64,9,9,0,0,1,.63.72,4.5,4.5,0,0,1,.45.82c.16.38.34.84.51,1.38a10.75,10.75,0,0,0-.73-2.79c-.44-1.18-.73-1.94-.87-2.31-.29-1.15-.56-2.14-.86-3.07-.08-.29-.21-.74-.38-1.37s-.3-1.12-.4-1.44-.23-.77-.38-1.39-.25-1.14-.33-1.57-.17-.92-.25-1.46-.15-1.11-.21-1.7-.11-1.2-.15-1.83V25c0-.56,0-.52.06.11a1.39,1.39,0,0,0,.06.53c.48,3.52,1.15,5.93,2,7.41a21.45,21.45,0,0,1,1.43,2.73,3.66,3.66,0,0,1,.25.53c.05.11,0,.06,0-.17a.9.9,0,0,0-.06-.26c0-.1,0-.16-.07-.26-.08-.35-.18-.74-.28-1.17s-.19-.77-.25-1a8.2,8.2,0,0,1-.19-1c-.06-.44-.12-.9-.16-1.36-.12-2.35-.18-4.13-.17-5.13V23.32c0-.36,0-1.16,0-2.42s0-2.12,0-2.61,0-1.24.06-2.29.1-1.9.18-2.56.2-1.41.36-2.22.34-1.56.54-2.29q.12-.21.24-.21a20.68,20.68,0,0,0-.58,4.27,48.08,48.08,0,0,0,1,12.48,8.33,8.33,0,0,0,1.41,3.4,8.38,8.38,0,0,1,1.23,3.94c.05.2.1.19.13,0a24.5,24.5,0,0,0-.06-3.43c-.1-1.87-.17-3.29-.17-4.1,0-.3,0-.63,0-1s0-.76,0-1.18,0-.77,0-1.07c0-1.26,0-2.8.08-4.55a55.68,55.68,0,0,0,.66,6.1,13.45,13.45,0,0,0,1.6,4.37c.08.15.25.41.49.79s.41.62.47.74.16.33.31.66.24.59.31.77a6.2,6.2,0,0,1,.18.74,7.5,7.5,0,0,1,.12,1c0,.34,0,.7,0,1.09a7.74,7.74,0,0,0-.11-4.33c-.08-.23-.18-.51-.31-.84l-.36-1c-.13-.34-.25-.63-.31-.85a2,2,0,0,1-.06-.56c1.15,2.16,2.09,2.68,2.81,1.53A11.65,11.65,0,0,0,283.31,23a31,31,0,0,0-.4-8.18,44.59,44.59,0,0,1,.92,6.77,54.92,54.92,0,0,1-.31,7c-.09.6-.24,1.58-.43,2.87s-.34,2.26-.42,3a17.42,17.42,0,0,1-.55,3.13,16.69,16.69,0,0,1-1.39,2.38l-.47.69c.24-.22.42-.4.54-.53a5.48,5.48,0,0,1,2.4-1.5c1.29-.42,2.34-1.56,3.06-3.94a30.42,30.42,0,0,0,.78-3.85,26.66,26.66,0,0,1-1.07,5.6,27.2,27.2,0,0,1-2.09,4.39,17.63,17.63,0,0,0-1.59,4.67,18.81,18.81,0,0,0-.43,3.46c0,.16,0,.4,0,.72a1,1,0,0,0,.13-.38,6,6,0,0,1,.78-2.42,1.71,1.71,0,0,1,1.66-.69,4.62,4.62,0,0,0,2-.11,1.69,1.69,0,0,0,.72-.46,3.41,3.41,0,0,0,.63-1c.18-.39.32-.69.4-.88s.22-.59.41-1.14a7.78,7.78,0,0,0,.29-.9q.12-.21.3-.48c0,.25,0,.67,0,1.28s.05,1.11.09,1.48.13.8.24,1.3a2.53,2.53,0,0,0,.57,1.21,2,2,0,0,0,1,.65l.72.11a2,2,0,0,1,.67.19l.5.28a1.58,1.58,0,0,1,.53.5,6.6,6.6,0,0,1,.47.87,10.94,10.94,0,0,1,.75,3.35,31.69,31.69,0,0,0-.3-4.11c-.24-2-.41-3.19-.43-3.65a11.11,11.11,0,0,0-.32-2.6c-.19-.6-.55-1.44-1.07-2.84a42.88,42.88,0,0,1-1.9-6.63q-.12-.45-.24-1.14c.12.24.27.57.44,1s.33.87.49,1.32a8.26,8.26,0,0,0,.51,1.13,18,18,0,0,0,1.83,2.47A12.53,12.53,0,0,1,295.53,40a1.62,1.62,0,0,0,.2.36c-.18-.41-.41-1-.71-1.68l-.58-1.41a53.61,53.61,0,0,1-1.23-5.55A37.18,37.18,0,0,1,292.49,27.6Z"/><path d="M313.22,33.22c-.48-11.52-.22-21.62.53-26.4h.07l-.05.66a94.4,94.4,0,0,0-.2,12.06,56.53,56.53,0,0,0,1.48,12.65,11.3,11.3,0,0,0,.52,1.5c.18.43.31.71.37.85a6.21,6.21,0,0,0,.56.87,4.86,4.86,0,0,0,.67.81,12,12,0,0,1,1.31,2.94c.08.34.14.42.19.27s0-.22-.06-.37v-.12c-.08-.74-.15-1.37-.23-1.85s-.13-.82-.17-1-.18-.57-.4-1.19-.4-1.07-.52-1.36a2.55,2.55,0,0,1-.2-1.28c.06-.18.19-.23.39-.17s.34-.1.46-.52a6.1,6.1,0,0,0,0-2.1c0-.49-.16-1.68-.41-3.58s-.39-3.46-.46-4.64c0-.4-.06-.9-.1-1.48,0-.38-.08-.88-.11-1.46V18c.07.64.11,1,.17,1.6a36.4,36.4,0,0,0,2.64,10.74,22.58,22.58,0,0,1,1.83,5.07c.16.57.25.67.26.3v-1a29.26,29.26,0,0,1,.48-4.6c.11-.89.18-1.95.21-3.17,0-.31,0-.82,0-1.54s0-1.38,0-2,0-1.23,0-1.84a14.8,14.8,0,0,1,.09-1.52l.07.16a3.47,3.47,0,0,1,.05.46c.52,5,1.18,8.54,2,10.44a4.68,4.68,0,0,0,.25.48c.28.73.49,1.25.61,1.56a11.84,11.84,0,0,1,.39,1.29,18.85,18.85,0,0,1,.37,2.12,2.75,2.75,0,0,0,.12.58c0-.1,0-.89.09-2.49a7.42,7.42,0,0,1,.62-3.3,2.36,2.36,0,0,0,.33-.5c.14-.24.23-.37.27-.36a13,13,0,0,0,1.37-3.74,34.36,34.36,0,0,0,.78-4.43c.13-1.31.26-3,.37-5.07,0,3-.1,6-.23,9-.11,2.33-.18,4.41-.28,6.14-.12,2.23-.17,3.84-.11,4.88l.36-1.39a9.33,9.33,0,0,1,1.43-3.47,11.64,11.64,0,0,0,1.48-3,41,41,0,0,0,1.22-9c0-.64,0-1.55.05-2.69.12,3.43.12,7.68-.12,12.13-.06.95-.1,1.68-.09,2.16s.05,1.06.12,1.74.21,1,.42,1.06a3.69,3.69,0,0,0,.9,0,.3.3,0,0,1,.26-.13c-.14.4-.48,1.19-1,2.31a10.22,10.22,0,0,0-1,3.41c0,.27,0,.62-.08,1l.06.14v-.13q.13-.36.24-.75c.07-.26.12-.45.17-.58s.09-.28.13-.46a2.66,2.66,0,0,1,.21-.53c.09-.18.22-.39.39-.66.27-.54.73-1.31,1.33-2.34a15.27,15.27,0,0,0,1.4-4.75c.3-1.81.6-4.66.89-8.39.17-2.09.43-7.42.38-13.33a2.67,2.67,0,0,1,.05-.88,4,4,0,0,1,.15,1.28c.3,5.16.25,13.47,0,22.46,0,1.41-.15,4.18-.3,7.65a36.9,36.9,0,0,1-.53,5.79,8.34,8.34,0,0,1-.87,2.28,16.72,16.72,0,0,0,1.25-2.32A19.74,19.74,0,0,1,340,43.55c.7-1.12,1.13-3.48,1.36-7.56.05-.63.12-1.58.19-2.88.1,1.32.12,3.57.17,6.3,0,.78,0,2.15.06,3.84s0,2.7.06,3.27a15.83,15.83,0,0,0,.27,2.23,15.22,15.22,0,0,0,.65,2.22,11.68,11.68,0,0,1,.69,3.92,15.13,15.13,0,0,1-.92,4.77,15.3,15.3,0,0,0,.56-1.44c.61-1.84.92-2.77,1-2.95a10.63,10.63,0,0,0,.72-3.59,21.77,21.77,0,0,0-.32-3.62,21.33,21.33,0,0,1,.7,6.83,23.88,23.88,0,0,1-.27,2.58q-.19,1.41-.48,3.18L344,63.46l0,.21c-.3,2-.47,3.16-.5,3.5a12.53,12.53,0,0,1-2.24,5.13,3.29,3.29,0,0,0,.79-.69,10.47,10.47,0,0,0,1.41-1.88,9.62,9.62,0,0,0,.79-1.64c.16-.49.43-1.4.8-2.75,0-.06.07-.32.2-.76l.48-1.78a22,22,0,0,1-.57,2.72c-.41,1.73-.67,2.81-.78,3.27-.19.72-.47,1.77-.78,3A28.72,28.72,0,0,1,342,76.45a3.37,3.37,0,0,0-.28,1.4,4.22,4.22,0,0,0,.17,1.09c.08.31.26.87.51,2a20.45,20.45,0,0,1,.43,2.59,47.22,47.22,0,0,1,.44,8l-.06.19-.05-.85c-.47-4.86-1.18-7.28-2.05-8.51-.73-1-1.37-1.88-1.82-2.57a6.58,6.58,0,0,0-1.11-1.42,11.85,11.85,0,0,1,1.17,3.48,39.06,39.06,0,0,1,.25,5.38c0,1.87-.06,5.39-.25,11.25-.17,5.09-.43,10.38-.66,15.19-.67,14.47-.59,19.79-.79,21.21.06-1.73.1-5,.2-10.25s.2-11.93.18-18.82-.26-11.89-.85-14.93c-.51-2.64-1.13-3.24-1.69-2a7.77,7.77,0,0,0-.37,1.78c-.08.73-.13,1.41-.17,2s-.07.94-.11.93-.14-.21-.29-1c-.11-.61-.22-1.32-.32-2.11s-.22-1.43-.34-1.92-.27-1.1-.46-1.78c-.08-.28-.39-1.4-.95-3.13.07.69.25,1.77.51,3.35s.44,2.94.55,3.94c.13,1.29.28,3.25.42,6,.05,1.22.12,2.41.23,3.52s.24,2.36.43,4.18.31,3.22.37,4.2a52.55,52.55,0,0,1,.27,5.95,77.69,77.69,0,0,0-2.91-17.67A15.27,15.27,0,0,0,331,93.88a16.37,16.37,0,0,1-1.37-5.63c-.12-.3-.19-.2-.19.31-.07,3.58,0,7.15.16,10.32.32,6.9.5,13.42.64,18.46-.6-9.26-1.34-17.14-2.62-21.17a23.54,23.54,0,0,1-1-6.41c0-.66,0-2,0-3.77,0,0-.08.21-.13.67s-.12.79-.21,1.32-.15.93-.17,1.18-.07.58-.14,1-.13.77-.18,1a6.77,6.77,0,0,1-.2.81,8.87,8.87,0,0,1-.29.87L324.86,94a32,32,0,0,0-1.66,8.58c-.05.65-.1,1.36-.14,2.13-.14,2-.24,5.06-.23,8.51,0-1.48-.06-2.26-.09-3.85,0-1.29-.07-3.29-.07-6.11s0-5,0-6.51a48.84,48.84,0,0,1,.27-5.47c.2-1.87.29-3.16.31-3.88,0-.94.07-2,0-3.19a8.62,8.62,0,0,0-.17,1.33,12,12,0,0,1-.3,1.87,5.16,5.16,0,0,1-.52,1.36,5.86,5.86,0,0,1-.75,1,6.06,6.06,0,0,0-.63.75,16.42,16.42,0,0,0-1.78,4.31,36.49,36.49,0,0,0-1,12.11c-.14-1.25-.23-2.36-.29-3.31a29.41,29.41,0,0,1,0-3c0-1,.07-1.78.08-2.22s.07-1.39.21-2.84.23-2.49.28-3.1c.39-4.87.11-7.09-.84-7.16-.08,0-.18,0-.31.13a2.49,2.49,0,0,1-.34.28.82.82,0,0,0-.25.24c-.06.09-.12.12-.16.1s0-.19,0-.52a19.36,19.36,0,0,1,.89-3.3,21,21,0,0,0,.81-2.6,8.39,8.39,0,0,0,.37-1.28,2.52,2.52,0,0,0-.49.81,5.47,5.47,0,0,1-.56,1c-.2.28-.43.6-.68,1s-.44.64-.56.8c-.62,1-1.17,3-1.59,6.23a111.21,111.21,0,0,0-.87,17,48.46,48.46,0,0,0,1,9.32,20.59,20.59,0,0,1-.47-2.25c-.18-1.1-.28-1.89-.34-2.18l.08.31-.06,0c-.32-2.35-.52-5-.63-7.68s-.17-6.05-.16-9.85,0-6.61,0-8.37c0-2-.09-3.91-.07-5.6a13.8,13.8,0,0,1,.54-4.1,5.62,5.62,0,0,1,.62-1.31,10.24,10.24,0,0,0-1.52,2.89c-.2.51-.43,1.08-.69,1.72s-.46,1.14-.59,1.48a16.32,16.32,0,0,0-.43,1.61,28.94,28.94,0,0,0-.44,3c0,.18,0,.27-.07.45a5.27,5.27,0,0,1-.25,1c.1-2.7.37-6,.75-9.08.07-.74.11-1.38.12-1.93a13.4,13.4,0,0,0,0-1.36,4.52,4.52,0,0,0-.3-1.16,5.1,5.1,0,0,0-.46-.87l-.64-.83a8.52,8.52,0,0,1-.63-.94,2.18,2.18,0,0,1-.21-.31,16.15,16.15,0,0,1-1.73-3.82,20.16,20.16,0,0,1-.83-3.55c.21.73.31,1.09.53,1.8a9,9,0,0,0,.62,1.75,9.39,9.39,0,0,0,.76,1.49,4.83,4.83,0,0,0,.76.75,5.25,5.25,0,0,0,.63.48l1.09,1c.08,0,.06,0-.07-.16a12.87,12.87,0,0,1-2-4c0-.1-.27-1.33-.73-3.89-.1-.55-.18-.89-.21-1-.1-.79-.17-1.68-.21-2.65s-.07-2.07-.08-3.28,0-2.11-.06-2.69c-.06-1.18-.12-2.85-.16-4.77.08,1.08.19,2.2.27,3.3a8.11,8.11,0,0,0,.95,3.9,15.33,15.33,0,0,1,1,1.37,6.62,6.62,0,0,1,.54.84,2.59,2.59,0,0,0-.22-.78,14.53,14.53,0,0,1-.78-2.69,16.42,16.42,0,0,1,.1-2.8c0-.28.17-2.43.23-5.82a31.26,31.26,0,0,1,.23-3.21c.29-2.28.56-4.37.71-5.61,0,.42,0,1.06-.09,1.89s-.1,1.47-.12,1.94,0,1,0,1.65a15.58,15.58,0,0,0,.13,1.66,7.69,7.69,0,0,0,.3,1.33c.1.32.24.74.45,1.26s.33.85.38,1c.27.7.55,1.41.84,2.11a29.89,29.89,0,0,1-.62-3.26c0-.23-.12-.64-.19-1.29a15.73,15.73,0,0,1-.1-1.59c0-.26,0-.41.06-.43s.12,0,.23.18a4.58,4.58,0,0,0,.35.45.45.45,0,0,0,.45.16c.17,0,.34-.22.51-.6a8.72,8.72,0,0,0,.64-3.12,29.22,29.22,0,0,0-.16-3.84A11.26,11.26,0,0,1,313.22,33.22Zm17.61,17.15c-1.19-.52-2.37-.24-3.6,1a17.76,17.76,0,0,0-3.24,4.8v-.1a10.71,10.71,0,0,1,.46-1.06l.07-.18a.69.69,0,0,0,.14-.26.72.72,0,0,0,.08-.27c.1-.17.84-1.52,2.1-3.69a9.43,9.43,0,0,1,2.25-2.78,2.52,2.52,0,0,0,.62-.68.22.22,0,0,0-.16.05,2.25,2.25,0,0,1-.22.11l-.25.09a.42.42,0,0,1-.19,0,2.27,2.27,0,0,1-1.11.13,5.51,5.51,0,0,1-1.06-.21,4.24,4.24,0,0,0-1.15-.13,4.18,4.18,0,0,0-3.26,1,1.51,1.51,0,0,0-.22.32A1.3,1.3,0,0,0,322,49a3.14,3.14,0,0,1-.07.41,2.14,2.14,0,0,0,0,.46c0,.2,0,.36.05.48a4,4,0,0,1,.05.48,4.82,4.82,0,0,1,0,.49c.11,1.44.24,2.71.39,3.76q-.09-.6-.27-1.47c-.12-.58-.22-1-.29-1.25s-.19-.6-.35-1a7.8,7.8,0,0,0-.6-1.33c0-.06-.13-.24-.28-.51s-.27-.52-.37-.73a3.51,3.51,0,0,0-.29-.5v.2a1.78,1.78,0,0,0,0,.3l.06.34.06.34c0,.12,0,.22.06.31a.58.58,0,0,1,0,.22,24.8,24.8,0,0,1-.11,4.11,12,12,0,0,0,1.16,6.28,9.58,9.58,0,0,0,3.06,3.09,10.21,10.21,0,0,1-4-2.91,7.84,7.84,0,0,1-1.7-3.62c0-.2-.07-.3-.11-.31,0,.33.11,1.37.26,3.12,0,.51,0,1.22.07,2.11s.05,1.39.05,1.51a4.68,4.68,0,0,0,.14.95.75.75,0,0,0,.45.52l.47.16.69.16c.21,0,.3.09.28.11a2.9,2.9,0,0,1-.29.25,8.74,8.74,0,0,0-1.38,1.35.93.93,0,0,1-.51.43,1,1,0,0,1-.31,0c-.09.09.08.4.52.91s.75.88,1,1.1c1.83,1.68,3.59,1.55,5.53-1.07a.82.82,0,0,1,.52-.41c-.37.76-1,1.9-1.69,3.22a16.64,16.64,0,0,0-.63,1.74,3.78,3.78,0,0,1-.29.55.61.61,0,0,1-.5.18h-.43a3.53,3.53,0,0,1-.67-.08.39.39,0,0,0-.24,0,11,11,0,0,0,2.66.64,3,3,0,0,1,.52.05l.49.07h.36a.9.9,0,0,0,.33-.07l.29-.19a1.14,1.14,0,0,0,.31-.31,4.46,4.46,0,0,0,.31-.52l.3-.43s.08.12.13.33a2.28,2.28,0,0,1,.08.52,1,1,0,0,0,1.51.79,1.59,1.59,0,0,0,.88-1.14,10.11,10.11,0,0,0-.2-3.88,41.86,41.86,0,0,0-1.18-4.82c-.08-.15-.17-.3-.23-.44s-.07-.28,0-.19.13.09.24.24.47,1.21,1.44,3.33c.19.42.7,1.4,1.57,2.85a15.14,15.14,0,0,1,1.32,3,1.15,1.15,0,0,0,.12.35c0-.32-.11-.78-.18-1.38s-.12-1.17-.14-1.68a12.22,12.22,0,0,1,0-1.6c.08-.93.22-2.06.26-3.24a11.27,11.27,0,0,0-.38-3.41c-.63-2.3-1.86-3.64-3.49-3.82a8.15,8.15,0,0,0-2.06.2c0-.07.19-.21.7-.41a6.4,6.4,0,0,1,1-.35,8.84,8.84,0,0,1,3,.17A4.24,4.24,0,0,1,333.85,60c.5.7.85,1.08,1.06,1.12,0,0,0-.07-.17-.24a14.13,14.13,0,0,1-1.38-4.57,1.11,1.11,0,0,1,0-.4c-.18-1.06-.73-1.56-1.63-1.53a1.87,1.87,0,0,0-.59,0,1.79,1.79,0,0,1-.58,0,5.3,5.3,0,0,1,.78-.66,6.83,6.83,0,0,0,.84-.68,1.06,1.06,0,0,0,.23-.86,2.32,2.32,0,0,0-.6-1.27s-.12-.07-.25-.21A2.16,2.16,0,0,0,330.83,50.37Z"/><path d="M371.92,39.25a55.42,55.42,0,0,0,1.66-8.66,85.63,85.63,0,0,0,.78-9.88,79.09,79.09,0,0,0-.47-8.67,71.13,71.13,0,0,1,.91,12c0,.12-.1,3.56-.39,10.36-.14,3.22-.22,6.44-.23,9.36a34.93,34.93,0,0,1-.56,7c-.08.42,0,.33.23-.29a35.21,35.21,0,0,0,1.47-4.86c.15-.76.39-2.05.69-4,.17-.85.34-1.68.5-2.46-.32,5-.46,8-.41,9.72,0,.84,0,2.25.08,3.59a16.83,16.83,0,0,0,.16,2.22,6.53,6.53,0,0,1-.19,2.47,13.31,13.31,0,0,1-1.3,2.62l0,.1.14-.18c.43-.48.88-1,1.34-1.46a4.75,4.75,0,0,0,.91-2.69,8.26,8.26,0,0,0-.08-1.63,12.41,12.41,0,0,1,.36,5.65,14,14,0,0,1-.58,1.9c-.42,1.1-1.11,2.57-2,4.39-1.14,2.36-2.09,3.68-2.77,3.67-.33,0-.79-.35-1.32-1,.78,1.24,1.53,1.78,2.14,1.58s1.27-1.13,2.32-2.83c.19-.28.45-.7.79-1.27a33.53,33.53,0,0,1-1.62,3.42,14.89,14.89,0,0,1-1.84,2.94,4.93,4.93,0,0,1-.92,1,4,4,0,0,1-1,.55c-.38.15-.68.24-.88.3l-1.06.22a4.42,4.42,0,0,1-1,.11c-1.05.25-1.89-.3-2.49-1.71-.1-.22-.23-.55-.39-1a9.39,9.39,0,0,0,.5,2.11,15.2,15.2,0,0,0,.78,2,2,2,0,0,0,2.21.89,1.33,1.33,0,0,0,.48,0,.2.2,0,0,1,.17.11,3.76,3.76,0,0,1-3.44.7c-.31-.16-.71-.37-1.19-.64a12.05,12.05,0,0,1-1.88-1.33,5.83,5.83,0,0,1-1.35-1.77A17.8,17.8,0,0,1,360.15,71v-.11l0,.21c0,.22.07.6.14,1.14s.13.9.15,1.11.08,1.2.13,2.46a8.08,8.08,0,0,0,.54,2.92l.12.18a7.07,7.07,0,0,0,1.34,1.87,9.93,9.93,0,0,1-1-.71,6,6,0,0,1-.78-.81q-.36-.45-.6-.78c-.15-.22-.38-.56-.66-1s-.5-.87-.65-1.14c0-.07-.15-.27-.33-.62a5.36,5.36,0,0,0-.36-.63c-.05-.07-.17-.27-.35-.59a4.82,4.82,0,0,0-.41-.66c-.1-.12-.23-.29-.39-.52s-.31-.4-.42-.52a1.52,1.52,0,0,0-.44-.32,4.48,4.48,0,0,0-.49-.28c-.16-.06-.17.07.09.32a6,6,0,0,1,1.59,3.69c0,.12,0,.55,0,1.22a6.54,6.54,0,0,0,.31,1.76,9.83,9.83,0,0,0,1.11,2,16.66,16.66,0,0,1,2.2,5.07c0,.19,0,.28.06.48-.08,0-.26-.37-.54-1a10.38,10.38,0,0,0-2.51-3.51,14.15,14.15,0,0,1-1.69-1.47c.05.13.26.37.63.91.65,1,1.52,3.28,2.28,10.9,0,.29,0,.79.08,1.56a43.19,43.19,0,0,1,.25,6.35,9.28,9.28,0,0,1-.18-1.18c-.08-.6-.15-1.16-.22-1.66s-.14-1-.23-1.6-.15-.93-.18-1.09a51.45,51.45,0,0,0-1.38-6.68,9.17,9.17,0,0,0,.1,1c.08.58.13,1.23.18,1.92s.1,1.23.12,1.52c.05.69.11,2.55.24,5.9s.25,6.19.39,8.23c0,.37.05.88.07,1.54s0,1.21.07,1.68.06,1,.1,1.71.07,1.29.1,1.86c.27,5.92.45,12.58.67,18.91,0,.67,0,1.5,0,2.47-.11-2.46-.21-4.85-.31-7s-.24-4.57-.42-7.16-.38-5-.61-7.38-.52-4.3-.85-5.93-.81-2.25-1.43-1.88c-.13.15-.2,0-.2-.32a11,11,0,0,1,.06-1.32c.27-3.29.39-4.89.4-5.06s0-2-.05-5a13.42,13.42,0,0,0-.09-1.35c0,.15,0,1-.12,2.68-.09,1.35-.41,3.36-.88,6.07a66.93,66.93,0,0,0-.82,10.36c0,1.45,0,3.18.07,5.12s.1,3.84.14,5.65.09,3.52.09,5c0,1.18,0,1.82,0,1.9s0-.22-.05-.9-.06-1.25-.09-2.1c-.52-10.28-1.14-18.6-2.14-23.4-.36-1.32-.72-1.84-1.08-1.61s-.67,1.15-1,2.79l-.08.49c0,.16-.09.32-.13.48-.06.33-.07.15-.05-.54a5.64,5.64,0,0,1,.08-.75,36.91,36.91,0,0,1,.46-4c.22-1.35.49-2.73.81-4.13s.55-2.49.7-3.33c.05-.42.14-1,.28-1.83-.17.51-.42,1.32-.76,2.49s-.55,1.93-.63,2.21c-.54,1.87-1.05,4.36-1.68,7.35a86.47,86.47,0,0,0-1.18,9.5c-.26,3.21-.57,7.87-.74,13.23-.18,6,0,12.07.8,16,.11.69.11.81,0,.45a18.82,18.82,0,0,1-.62-2.38,46.67,46.67,0,0,1-.67-6c-.14-2.3-.24-5.31-.28-9.11s0-6.72,0-8.44c0-4,.08-9.34.22-15.39a53.68,53.68,0,0,1,1.53-12.8c.26-.8.51-1.56.76-2.27a27.78,27.78,0,0,0-1.13,2.55c-.17.34-.61,1.23-1.34,2.83-.09.25-.17.47-.26.66s-.17.41-.26.67-.16.53-.23.8-.13.55-.18.83-.09.54-.14.75-.09.54-.14,1-.11.77-.15,1a9.16,9.16,0,0,0-.15,1c-.06.45-.11.83-.16,1.14-.1.76-.2,1.46-.3,2.08.21-4.67.42-7.86.65-9.88a73.74,73.74,0,0,1,1.34-7.48c.54-2.32,1.09-3.33,1.87-4.06.23-.17.33-.27.29-.28l-.36.13a12.28,12.28,0,0,1-2.22.59c-1,.21-1.44.36-1.46.33a.41.41,0,0,1,0-.19.49.49,0,0,1,.07-.28l.15-.31.18-.3.21-.34a2.51,2.51,0,0,1,.25-.32,1.3,1.3,0,0,0,.23-.26l.26-.38a3.65,3.65,0,0,0,.67-1.86,7.15,7.15,0,0,0-.21-1.36c-.14-.63-.29-1.35-.45-2.15s-.26-1.4-.31-1.75a28.48,28.48,0,0,1-.27-2.93c0-1,0-2,0-2.86a29.8,29.8,0,0,0,1.28,6.39c.15.29.31.61.5.94s.39.68.62,1,.41.65.57.87a.5.5,0,0,0,.11.16,1.47,1.47,0,0,1,.15.17.3.3,0,0,1,.08.2,7.81,7.81,0,0,0-.36-.87c-.2-.44-.35-.78-.46-1a7.52,7.52,0,0,1-.34-1.5,9,9,0,0,1,.06-1.88c.09-.82.15-1.34.16-1.55a19.4,19.4,0,0,0-.41-5c-.28-1.38-.48-2.32-.57-2.82-.26-1.76-.47-3.89-.71-6.08a5.51,5.51,0,0,1,.45,1.19c.17.6.31,1.08.41,1.42a7.36,7.36,0,0,0,.49,1.14,4,4,0,0,0,.68,1c.56.57.83.86,1.39,1.44l.61.82s0-.12,0-.32l-.34-.82-.28-.76-.17-.58c-.08-.28-.15-.52-.19-.73s-.09-.45-.14-.75,0-.68-.08-1-.12-.62-.16-1.08-.09-.85-.13-1.2-.12-.68-.2-1c-1.07-5.33-1.77-9.73-1.76-9.92,0-.46-.08-1-.13-1.65s-.1-1.25-.15-1.82-.09-1.12-.12-1.65a78.56,78.56,0,0,0,1.41,8.86,9.18,9.18,0,0,0,.79,2.2,12.29,12.29,0,0,0,1.12,1.75c.43.57.78,1,1,1.33-.09-.15-.22-.36-.39-.62l-.07-.14a1.41,1.41,0,0,1-.33-.42c-.13-.24-.22-.4-.26-.46a1.7,1.7,0,0,1-.19-.39c-.09-.22-.15-.36-.17-.42l-.13-.39a3.33,3.33,0,0,1-.12-.56c0-.17-.05-.39-.07-.68s-.05-.59-.09-.91c-.19-2.71-.34-5.48-.51-7.46-.07-1.07-.11-1.62-.18-2.73-.33-5.48-.45-10.39-.4-14s.37-8.15.81-12.39a12.71,12.71,0,0,1,.33-2.07,5.78,5.78,0,0,1,0,1.45,92.12,92.12,0,0,0-.31,9.71,64.23,64.23,0,0,0,.94,10.83c.7,3.76,1.6,6.06,2.57,7l.19,0,.82.85a3.69,3.69,0,0,1,.59,1.06,9.61,9.61,0,0,1,.55,2,7.66,7.66,0,0,1,.25,1.18,8.41,8.41,0,0,1,.14,1c0-1-.21-3-.54-6.36-.1-1-.18-2.47-.24-4.4s-.12-3.32-.18-4.15c0-.36-.07-.9-.12-1.6s-.09-1.19-.12-1.43,0-.21-.06-.35a1,1,0,0,1,.07-.43c0-.06.09,0,.12.27a8.84,8.84,0,0,1,.2.9c.09.48.2,1,.31,1.53a7.48,7.48,0,0,1,.16,1c1,5,2.18,8.09,3.41,9.49.09,0,.22.12.4.31l.36.38a4.24,4.24,0,0,1,.29.38,3.45,3.45,0,0,1,.3.45c.06.12.14.27.24.44a3.26,3.26,0,0,1,.23.6,6.28,6.28,0,0,0,.23.76c.09.28.18.58.25.9a1.63,1.63,0,0,0,.15.49,2.18,2.18,0,0,0,0-.62c0-.61-.11-1.56-.25-2.85s-.19-2.33-.23-3c0-.34-.06-.72-.07-1.13s0-.77,0-1.06,0-.62,0-1,0-.73-.07-1.08c0-.69-.1-1.92-.22-3.61s-.23-2.94-.29-3.77c0-.42,0-.63,0-1a.85.85,0,0,0,.05.35c0,.48.07.89.1,1.25.71,5.28,1.43,8.82,2.21,10.44a10.38,10.38,0,0,1,.46,1c.11.31.2.55.26.73s.14.54.25,1.06a8.83,8.83,0,0,0,.33,1.31c.13.34.24.51.26.45s.06-.4.12-1.06a22.47,22.47,0,0,1,.39-2.87c.16-.67.37-1.44.63-2.3s.48-1.64.65-2.33c.31-1.28.7-3.49,1.15-6.51a26,26,0,0,1-.11,2.85c0,.24-.07,1.05-.2,2.42s-.21,2.32-.24,2.85,0,1.32,0,2.31a19.92,19.92,0,0,0,.15,2.56,19.28,19.28,0,0,1,.13,2.38c0,.34-.06,1-.16,1.93s-.15,1.64-.16,2.13c0-.11,0-.17.07-.29a8.13,8.13,0,0,0,.22-.8c.11-.45.19-.78.23-1A22.94,22.94,0,0,1,367.4,38a22.14,22.14,0,0,0,2.1-6.91c.09-.47.18-1.19.28-2.14l.06-.17c.09-.59.17-.88.25-.87,0,1,0,2.48,0,4.53s-.1,3.28-.11,3.75c0,.71-.14,2.86-.24,5.92,0,1.48,0,2.45,0,2.94.08,0,.2-.31.37-1a12.56,12.56,0,0,1,.41-1.34,6.29,6.29,0,0,1,.43-1c.14-.25.3-.58.49-1A13.09,13.09,0,0,0,371.92,39.25ZM358.85,60c-.47,2-1.27,2.84-2.34,2.41l-.25,0a3.29,3.29,0,0,0,.22.35c.64.66,1.54.71,2.71.14a4.68,4.68,0,0,0,1.3-1,2.45,2.45,0,0,0,.5-1,21.21,21.21,0,0,0,.26-2.23,7.33,7.33,0,0,1,.34-2.28c0,.35.05.65.07.86a1.91,1.91,0,0,1,0,.42c.12.64.32,1.53.58,2.72a10.88,10.88,0,0,1,.2,2.31c0,.36.16.45.46.27a9.77,9.77,0,0,1,1.48-.69,2.79,2.79,0,0,0,1.68-1.68,13.87,13.87,0,0,0,.7-3.46c0-.11,0-.26,0-.43a4.71,4.71,0,0,0-.41.8,4.9,4.9,0,0,1-.55,1c-.49.46-.87.45-1.16,0-.07-.14,0-.32.1-.56l.47-.54a5.8,5.8,0,0,0,.66-1,2,2,0,0,0-.43-2.74,4.19,4.19,0,0,0-.55-.4l-1.3-.72a3.51,3.51,0,0,0-.74-.41s0,.11.13.26a3.71,3.71,0,0,1,1.11,1.85A6.94,6.94,0,0,1,364,56.8c-.17.88-.24,1.22-.29.78a8.72,8.72,0,0,0-.59-3.12,4.41,4.41,0,0,0-2.52-2.14,6.19,6.19,0,0,0-2.77-.64,7,7,0,0,0-1.15.23l.19,0c1.55.09,2.37.63,2.35,2a2.53,2.53,0,0,1,0,.35c0,.18,0,.33,0,.44a1.61,1.61,0,0,0,0,.37,1.44,1.44,0,0,0,.07.35.76.76,0,0,0,.15.23.29.29,0,0,0,.27.08,2.86,2.86,0,0,0,.43-.08s.14-.07.26-.13a.55.55,0,0,1,.43-.08s0,.26-.16.72a4.83,4.83,0,0,1-.64,1,4.44,4.44,0,0,0-.78,1.68C359.08,59,359,59.44,358.85,60Z"/><text class="cls-1" transform="translate(122.51 98.12)">VINYL RECORDS</text></g></g></svg>